<?xml version="1.0" standalone="no"?>
<!DOCTYPE svg PUBLIC "-//W3C//DTD SVG 1.1//EN"
  "http://www.w3.org/Graphics/SVG/1.1/DTD/svg11.dtd">
<svg width="113mm" height="87mm" viewBox="-446 181 113 87" xmlns="http://www.w3.org/2000/svg" version="1.1">
	<title>svgOutput</title>
	<desc>made with tinkercad</desc>
<path d="M -334 267 L -337.00299072265625 267 L -366.00299072265625 267 L -441.99798583984375 267 L -445 267 L -445 249.9029998779297 L -441.99798583984375 249.9029998779297 L -441.99798583984375 232.9010009765625 L -445 232.9010009765625 L -445 215.8990020751953 L -441.99798583984375 215.8990020751953 L -441.99798583984375 198.8979949951172 L -445 198.8979949951172 L -445 182 L -441.99798583984375 182 L -366.00299072265625 182 L -345.99798583984375 182 L -337.00299072265625 182 L -334 182 L -334 198.8979949951172 L -337.00299072265625 198.8979949951172 L -337.00299072265625 215.8990020751953 L -334 215.8990020751953 L -334 232.9010009765625 L -337.00299072265625 232.9010009765625 L -337.00299072265625 234.80299377441406 L -337.00299072265625 249.9029998779297 L -334 249.9029998779297 L -334 267 M -365.2409973144531 228.6280059814453 L -364.8868103027344 229.37600708007812 L -364.8210144042969 229.51499938964844 L -364.3169860839844 230.35699462890625 L -363.73199462890625 231.14599609375 L -363.072998046875 231.8730010986328 L -362.34600830078125 232.53199768066406 L -361.5570068359375 233.11700439453125 L -360.7149963378906 233.62100219726562 L -360.447998046875 233.74742126464844 L -359.8280029296875 234.04100036621094 L -358.90399169921875 234.3719940185547 L -357.95098876953125 234.61000061035156 L -356.9800109863281 234.75399780273438 L -356 234.80299377441406 L -355.0199890136719 234.75399780273438 L -354.04901123046875 234.61000061035156 L -353.09600830078125 234.3719940185547 L -352.2560119628906 234.0710906982422 L -352.1719970703125 234.04100036621094 L -351.2850036621094 233.62100219726562 L -350.4429931640625 233.11700439453125 L -349.65399169921875 232.53199768066406 L -348.927001953125 231.8730010986328 L -348.26800537109375 231.14599609375 L -347.6830139160156 230.35699462890625 L -347.1789855957031 229.51499938964844 L -347.1131896972656 229.37600708007812 L -346.7590026855469 228.6280059814453 L -346.4280090332031 227.70399475097656 L -346.19000244140625 226.75100708007812 L -346.0459899902344 225.77999877929688 L -345.99798583984375 224.8000030517578 L -346.0459899902344 223.82000732421875 L -346.19000244140625 222.8489990234375 L -346.4280090332031 221.89599609375 L -346.68304443359375 221.1840057373047 L -346.7590026855469 220.9720001220703 L -347.1789855957031 220.0850067138672 L -347.6830139160156 219.2429962158203 L -348.26800537109375 218.4550018310547 L -348.927001953125 217.7270050048828 L -349.65399169921875 217.0679931640625 L -350.4429931640625 216.48300170898438 L -351.2850036621094 215.97900390625 L -352.1719970703125 215.5590057373047 L -352.2560119628906 215.52891540527344 L -353.09600830078125 215.22799682617188 L -354.04901123046875 214.99000549316406 L -355.0199890136719 214.8459930419922 L -356 214.79800415039062 L -356.9800109863281 214.8459930419922 L -357.95098876953125 214.99000549316406 L -358.90399169921875 215.22799682617188 L -359.8280029296875 215.5590057373047 L -360.447998046875 215.85256958007812 L -360.7149963378906 215.97900390625 L -361.5570068359375 216.48300170898438 L -362.34600830078125 217.0679931640625 L -363.072998046875 217.7270050048828 L -363.73199462890625 218.4550018310547 L -364.3169860839844 219.2429962158203 L -364.8210144042969 220.0850067138672 L -365.2409973144531 220.9720001220703 L -365.31695556640625 221.1840057373047 L -365.5719909667969 221.89599609375 L -365.80999755859375 222.8489990234375 L -365.9540100097656 223.82000732421875 L -366.00299072265625 224.8000030517578 L -365.9540100097656 225.77999877929688 L -365.80999755859375 226.75100708007812 L -365.5719909667969 227.70399475097656 L -365.2409973144531 228.6280059814453 z" fill="none" stroke="rgb(255,0,0)" stroke-width="0.001mm" />
</svg>