<?xml version="1.0" standalone="no"?>
<!DOCTYPE svg PUBLIC "-//W3C//DTD SVG 1.1//EN"
  "http://www.w3.org/Graphics/SVG/1.1/DTD/svg11.dtd">
<svg width="113mm" height="87mm" viewBox="-96 -133 113 87" xmlns="http://www.w3.org/2000/svg" version="1.1">
	<title>svgOutput</title>
	<desc>made with tinkercad</desc>
<path d="M -95 -47 L -95 -132 L -16.003000259399414 -132 L 4.001999855041504 -132 L 12.998000144958496 -132 L 16 -132 L 16 -115.10199737548828 L 12.998000144958496 -115.10199737548828 L 12.998000144958496 -98.10099792480469 L 16 -98.10099792480469 L 16 -81.0989990234375 L 12.998000144958496 -81.0989990234375 L 12.998000144958496 -79.197998046875 L 12.998000144958496 -64.09700012207031 L 16 -64.09700012207031 L 16 -47 L 12.998000144958496 -47 L -16.003000259399414 -47 L -95 -47 M -6.980000019073486 -79.24600219726562 L -6 -79.197998046875 L -5.019999980926514 -79.24600219726562 L -4.048999786376953 -79.38999938964844 L -3.0959999561309814 -79.62799835205078 L -2.171999931335449 -79.95899963378906 L -1.284999966621399 -80.37899780273438 L -0.4429999887943268 -80.88300323486328 L 0 -81.21145629882812 L 0.34599998593330383 -81.46800231933594 L 0.8446403741836548 -81.91999816894531 L 1.0729999542236328 -82.12699890136719 L 1.7319999933242798 -82.85399627685547 L 2.316999912261963 -83.64299774169922 L 2.821000099182129 -84.48500061035156 L 3.240999937057495 -85.37200164794922 L 3.572000026702881 -86.2959976196289 L 3.809999942779541 -87.2490005493164 L 3.9539999961853027 -88.22000122070312 L 4.001999855041504 -89.19999694824219 L 3.9573307037353516 -90.11199951171875 L 3.9539999961853027 -90.18000030517578 L 3.809999942779541 -91.1510009765625 L 3.572000026702881 -92.10399627685547 L 3.240999937057495 -93.02799987792969 L 2.821000099182129 -93.91500091552734 L 2.316999912261963 -94.75700378417969 L 1.7319999933242798 -95.5459976196289 L 1.0729999542236328 -96.27300262451172 L 0.34599998593330383 -96.93199920654297 L 0 -97.18853759765625 L -0.4429999887943268 -97.51699829101562 L -1.284999966621399 -98.02100372314453 L -1.8826690912246704 -98.30400085449219 L -2.171999931335449 -98.44100189208984 L -3.0959999561309814 -98.77200317382812 L -4.048999786376953 -99.01000213623047 L -5.019999980926514 -99.15399932861328 L -6 -99.2030029296875 L -6.980000019073486 -99.15399932861328 L -7.951000213623047 -99.01000213623047 L -8.904000282287598 -98.77200317382812 L -9.82800006866455 -98.44100189208984 L -10.117330551147461 -98.30400085449219 L -10.71500015258789 -98.02100372314453 L -11.557000160217285 -97.51699829101562 L -12.345999717712402 -96.93199920654297 L -13.072999954223633 -96.27300262451172 L -13.732000350952148 -95.5459976196289 L -14.317000389099121 -94.75700378417969 L -14.821000099182129 -93.91500091552734 L -15.241000175476074 -93.02799987792969 L -15.571999549865723 -92.10399627685547 L -15.8100004196167 -91.1510009765625 L -15.954000473022461 -90.18000030517578 L -15.95740032196045 -90.11199951171875 L -16.003000259399414 -89.19999694824219 L -15.954000473022461 -88.22000122070312 L -15.8100004196167 -87.2490005493164 L -15.571999549865723 -86.2959976196289 L -15.241000175476074 -85.37200164794922 L -14.821000099182129 -84.48500061035156 L -14.317000389099121 -83.64299774169922 L -13.732000350952148 -82.85399627685547 L -13.072999954223633 -82.12699890136719 L -12.844640731811523 -81.91999816894531 L -12.345999717712402 -81.46800231933594 L -11.557000160217285 -80.88300323486328 L -10.71500015258789 -80.37899780273438 L -9.82800006866455 -79.95899963378906 L -8.904000282287598 -79.62799835205078 L -7.951000213623047 -79.38999938964844 L -6.980000019073486 -79.24600219726562 z" fill="none" stroke="rgb(255,0,0)" stroke-width="0.001mm" />
</svg>