<?xml version="1.0" standalone="no"?>
<!DOCTYPE svg PUBLIC "-//W3C//DTD SVG 1.1//EN"
  "http://www.w3.org/Graphics/SVG/1.1/DTD/svg11.dtd">
<svg width="219mm" height="87mm" viewBox="-270 -45.099998474121094 219 87" xmlns="http://www.w3.org/2000/svg" version="1.1">
	<title>svgOutput</title>
	<desc>made with tinkercad</desc>
<path d="M -269 40.900001525878906 L -269 -44.099998474121094 L -190.0030059814453 -44.099998474121094 L -169.9980010986328 -44.099998474121094 L -55.00299835205078 -44.099998474121094 L -52 -44.099998474121094 L -52 -27.202999114990234 L -55.00299835205078 -27.202999114990234 L -55.00299835205078 -10.201000213623047 L -52 -10.201000213623047 L -52 6.801000118255615 L -55.00299835205078 6.801000118255615 L -55.00299835205078 6.9019999504089355 L -55.00299835205078 23.802000045776367 L -52 23.802000045776367 L -52 40.900001525878906 L -55.00299835205078 40.900001525878906 L -190.0030059814453 40.900001525878906 L -269 40.900001525878906 M -170.75900268554688 0.7279999852180482 L -170.4984893798828 1.1102230246251565e-16 L -170.42799377441406 -0.19699999690055836 L -170.19000244140625 -1.1490000486373901 L -170.04600524902344 -2.119999885559082 L -169.9980010986328 -3.0999999046325684 L -170.04600524902344 -4.080999851226807 L -170.19000244140625 -5.052000045776367 L -170.42799377441406 -6.004000186920166 L -170.75900268554688 -6.927999973297119 L -171.1790008544922 -7.815000057220459 L -171.4046630859375 -8.192000389099121 L -171.68299865722656 -8.656999588012695 L -172.26800537109375 -9.446000099182129 L -172.927001953125 -10.17300033569336 L -173.6540069580078 -10.831999778747559 L -174.4429931640625 -11.416999816894531 L -175.28500366210938 -11.92199993133545 L -176.1719970703125 -12.340999603271484 L -177.0959930419922 -12.67199993133545 L -178.0489959716797 -12.90999984741211 L -179.02000427246094 -13.055000305175781 L -180 -13.102999687194824 L -180.2239990234375 -13.092028617858887 L -180.97999572753906 -13.055000305175781 L -181.9510040283203 -12.90999984741211 L -182.9040069580078 -12.67199993133545 L -183.8280029296875 -12.340999603271484 L -184.71499633789062 -11.92199993133545 L -185.5570068359375 -11.416999816894531 L -186.3459930419922 -10.831999778747559 L -187.072998046875 -10.17300033569336 L -187.73199462890625 -9.446000099182129 L -188.31700134277344 -8.656999588012695 L -188.5953369140625 -8.192000389099121 L -188.8209991455078 -7.815000057220459 L -189.24099731445312 -6.927999973297119 L -189.57200622558594 -6.004000186920166 L -189.80999755859375 -5.052000045776367 L -189.95399475097656 -4.080999851226807 L -190.0030059814453 -3.0999999046325684 L -189.95399475097656 -2.119999885559082 L -189.80999755859375 -1.1490000486373901 L -189.57200622558594 -0.19699999690055836 L -189.5015106201172 1.1102230246251565e-16 L -189.24099731445312 0.7279999852180482 L -188.8209991455078 1.6150000095367432 L -188.31700134277344 2.4570000171661377 L -187.73199462890625 3.244999885559082 L -187.072998046875 3.9730000495910645 L -186.3459930419922 4.631999969482422 L -185.5570068359375 5.2170000076293945 L -184.71499633789062 5.7210001945495605 L -183.8280029296875 6.140999794006348 L -182.9040069580078 6.4720001220703125 L -181.9510040283203 6.710000038146973 L -180.97999572753906 6.854000091552734 L -180.2239990234375 6.89102840423584 L -180 6.9019999504089355 L -179.02000427246094 6.854000091552734 L -178.0489959716797 6.710000038146973 L -177.0959930419922 6.4720001220703125 L -176.1719970703125 6.140999794006348 L -175.28500366210938 5.7210001945495605 L -174.4429931640625 5.2170000076293945 L -173.6540069580078 4.631999969482422 L -172.927001953125 3.9730000495910645 L -172.26800537109375 3.244999885559082 L -171.68299865722656 2.4570000171661377 L -171.1790008544922 1.6150000095367432 L -170.75900268554688 0.7279999852180482 z" fill="none" stroke="rgb(255,0,0)" stroke-width="0.001mm" />
</svg>