<?xml version="1.0" standalone="no"?>
<!DOCTYPE svg PUBLIC "-//W3C//DTD SVG 1.1//EN"
  "http://www.w3.org/Graphics/SVG/1.1/DTD/svg11.dtd">
<svg width="422mm" height="292mm" viewBox="-377 -438 422 292" xmlns="http://www.w3.org/2000/svg" version="1.1">
	<title>svgOutput</title>
	<desc>made with tinkercad</desc>
<path d="M -376 -321 L -372.99798583984375 -321 L -372.99798583984375 -340.3340148925781 L -376 -340.3340148925781 L -376 -359.6679992675781 L -372.99798583984375 -359.6679992675781 L -372.99798583984375 -359.6700134277344 L -372.99798583984375 -362 L -372.99798583984375 -379.00201416015625 L -376 -379.00201416015625 L -376 -398.33599853515625 L -372.99798583984375 -398.33599853515625 L -372.99798583984375 -417 L -372.99798583984375 -417.6700134277344 L -376 -417.6700134277344 L -376 -437 L -372.99798583984375 -437 L -356.0050048828125 -437 L -356.0050048828125 -434.0979919433594 L -336.0039978027344 -434.0979919433594 L -336.0039978027344 -437 L -316.0039978027344 -437 L -316.0039978027344 -434.0979919433594 L -296.00299072265625 -434.0979919433594 L -296.00299072265625 -437 L -276.00299072265625 -437 L -276.00299072265625 -434.0979919433594 L -256.00201416015625 -434.0979919433594 L -256.00201416015625 -437 L -236.0019989013672 -437 L -236.0019989013672 -434.0979919433594 L -216.00100708007812 -434.0979919433594 L -216.00100708007812 -437 L -196.00100708007812 -437 L -196.00100708007812 -434.0979919433594 L -176 -434.0979919433594 L -176 -437 L -156 -437 L -156 -434.0979919433594 L -135.99899291992188 -434.0979919433594 L -135.99899291992188 -437 L -115.9990005493164 -437 L -115.9990005493164 -434.0979919433594 L -95.99800109863281 -434.0979919433594 L -95.99800109863281 -437 L -75.99800109863281 -437 L -75.99800109863281 -434.0979919433594 L -55.99700164794922 -434.0979919433594 L -55.99700164794922 -437 L -35.99700164794922 -437 L -35.99700164794922 -434.0979919433594 L -15.996000289916992 -434.0979919433594 L -15.996000289916992 -437 L 4.004000186920166 -437 L 4.004000186920166 -434.0979919433594 L 24.0049991607666 -434.0979919433594 L 24.0049991607666 -437 L 41 -437 L 44 -437 L 44 -429 L 44 -417 L 44 -362 L 44 -147 L 41.00299835205078 -147 L 41 -147 L 24.0049991607666 -147 L 24.0049991607666 -149.9029998779297 L 4.004000186920166 -149.9029998779297 L 4.004000186920166 -147 L -15.996000289916992 -147 L -15.996000289916992 -149.9029998779297 L -31 -149.9029998779297 L -35.99700164794922 -149.9029998779297 L -35.99700164794922 -147 L -55.99700164794922 -147 L -55.99700164794922 -149.9029998779297 L -75.99800109863281 -149.9029998779297 L -75.99800109863281 -147 L -86 -147 L -95.99800109863281 -147 L -95.99800109863281 -149.9029998779297 L -115.9990005493164 -149.9029998779297 L -115.9990005493164 -147 L -135.99899291992188 -147 L -135.99899291992188 -149.9029998779297 L -156 -149.9029998779297 L -156 -147 L -176 -147 L -176 -149.9029998779297 L -196.00100708007812 -149.9029998779297 L -196.00100708007812 -147 L -216.00100708007812 -147 L -216.00100708007812 -149.9029998779297 L -219 -149.9029998779297 L -236.0019989013672 -149.9029998779297 L -236.0019989013672 -147 L -256.00201416015625 -147 L -256.00201416015625 -149.9029998779297 L -274 -149.9029998779297 L -276.00299072265625 -149.9029998779297 L -276.00299072265625 -147 L -296.00299072265625 -147 L -296.00299072265625 -149.9029998779297 L -316.0039978027344 -149.9029998779297 L -316.0039978027344 -147 L -336.0039978027344 -147 L -336.0039978027344 -149.9029998779297 L -356.0050048828125 -149.9029998779297 L -356.0050048828125 -147 L -373 -147 L -376 -147 L -376 -149.9029998779297 L -376 -166.32899475097656 L -372.99798583984375 -166.32899475097656 L -372.99798583984375 -185.66299438476562 L -376 -185.66299438476562 L -376 -204.9969940185547 L -372.99798583984375 -204.9969940185547 L -372.99798583984375 -224.3300018310547 L -372.99798583984375 -224.33099365234375 L -376 -224.33099365234375 L -376 -243.6649932861328 L -372.99798583984375 -243.6649932861328 L -372.99798583984375 -262.99798583984375 L -376 -262.99798583984375 L -376 -282.3320007324219 L -372.99798583984375 -282.3320007324219 L -372.99798583984375 -301.6659851074219 L -376 -301.6659851074219 L -376 -321 M -203.88999938964844 -329.33599853515625 L -204.88275146484375 -327.67999267578125 L -206.91799926757812 -324.2850036621094 L -209.43499755859375 -318.9620056152344 L -211.41900634765625 -313.4179992675781 L -212.85000610351562 -307.70599365234375 L -213.71400451660156 -301.8810119628906 L -214.0030059814453 -296 L -213.71400451660156 -290.1189880371094 L -212.85000610351562 -284.29400634765625 L -211.41900634765625 -278.5820007324219 L -209.43499755859375 -273.0379943847656 L -206.91799926757812 -267.7149963378906 L -203.88999938964844 -262.66400146484375 L -203.50436401367188 -262.1440124511719 L -200.38299560546875 -257.93499755859375 L -196.42799377441406 -253.57200622558594 L -192.06500244140625 -249.61700439453125 L -187.33599853515625 -246.11000061035156 L -182.28500366210938 -243.08299255371094 L -176.96200561523438 -240.56500244140625 L -171.41799926757812 -238.58099365234375 L -165.70599365234375 -237.14999389648438 L -159.88099670410156 -236.28599548339844 L -154 -235.9969940185547 L -148.11900329589844 -236.28599548339844 L -142.29400634765625 -237.14999389648438 L -136.58200073242188 -238.58099365234375 L -131.07200622558594 -240.55282592773438 L -131.03799438476562 -240.56500244140625 L -125.71499633789062 -243.08299255371094 L -120.66400146484375 -246.11000061035156 L -115.93499755859375 -249.61700439453125 L -111.5719985961914 -253.57200622558594 L -107.61699676513672 -257.93499755859375 L -104.4956283569336 -262.1440124511719 L -104.11000061035156 -262.66400146484375 L -101.08300018310547 -267.7149963378906 L -98.56500244140625 -273.0379943847656 L -96.58100128173828 -278.5820007324219 L -95.1500015258789 -284.29400634765625 L -94.28600311279297 -290.1189880371094 L -93.99800109863281 -296 L -94.28600311279297 -301.8810119628906 L -95.1500015258789 -307.70599365234375 L -96.58100128173828 -313.4179992675781 L -98.56500244140625 -318.9620056152344 L -101.08300018310547 -324.2850036621094 L -103.1175765991211 -327.67999267578125 L -104.11000061035156 -329.33599853515625 L -107.61699676513672 -334.06500244140625 L -111.5719985961914 -338.4280090332031 L -115.93499755859375 -342.38299560546875 L -120.66400146484375 -345.8900146484375 L -125.71499633789062 -348.9179992675781 L -131.03799438476562 -351.43499755859375 L -131.07200622558594 -351.4471740722656 L -136.58200073242188 -353.41900634765625 L -142.29400634765625 -354.8500061035156 L -148.11900329589844 -355.7139892578125 L -154 -356.00299072265625 L -159.88099670410156 -355.7139892578125 L -165.70599365234375 -354.8500061035156 L -171.41799926757812 -353.41900634765625 L -176.96200561523438 -351.43499755859375 L -182.28500366210938 -348.9179992675781 L -187.33599853515625 -345.8900146484375 L -192.06500244140625 -342.38299560546875 L -196.42799377441406 -338.4280090332031 L -200.38299560546875 -334.06500244140625 L -203.88999938964844 -329.33599853515625 M 37.99800109863281 -398.3370056152344 L 40.99800109863281 -398.3370056152344 L 41 -398.3370056152344 L 41.00299835205078 -398.3370056152344 L 41.00299835205078 -417 L 41.00299835205078 -417.6709899902344 L 41 -417.6709899902344 L 40.99800109863281 -417.6709899902344 L 37.99800109863281 -417.6709899902344 L 37.99800109863281 -417 L 37.99800109863281 -399.1520080566406 L 37.99800109863281 -398.3370056152344 M 37.99800109863281 -166.3300018310547 L 40.99800109863281 -166.3300018310547 L 41 -166.3300018310547 L 41.00299835205078 -166.3300018310547 L 41.00299835205078 -185.66400146484375 L 41 -185.66400146484375 L 40.99800109863281 -185.66400146484375 L 37.99800109863281 -185.66400146484375 L 37.99800109863281 -166.3300018310547 M 37.99800109863281 -204.9980010986328 L 40.99800109863281 -204.9980010986328 L 41 -204.9980010986328 L 41.00299835205078 -204.9980010986328 L 41.00299835205078 -224.33200073242188 L 41 -224.33200073242188 L 40.99800109863281 -224.33200073242188 L 37.99800109863281 -224.33200073242188 L 37.99800109863281 -204.9980010986328 M 37.99800109863281 -243.66600036621094 L 40.99800109863281 -243.66600036621094 L 41 -243.66600036621094 L 41.00299835205078 -243.66600036621094 L 41.00299835205078 -263 L 41 -263 L 40.99800109863281 -263 L 37.99800109863281 -263 L 37.99800109863281 -243.66600036621094 M 37.99800109863281 -282.3340148925781 L 40.99800109863281 -282.3340148925781 L 41 -282.3340148925781 L 41.00299835205078 -282.3340148925781 L 41.00299835205078 -301.6679992675781 L 41 -301.6679992675781 L 40.99800109863281 -301.6679992675781 L 37.99800109863281 -301.6679992675781 L 37.99800109863281 -282.3340148925781 M 37.99800109863281 -321.00201416015625 L 40.99800109863281 -321.00201416015625 L 41 -321.00201416015625 L 41.00299835205078 -321.00201416015625 L 41.00299835205078 -340.33599853515625 L 41 -340.33599853515625 L 40.99800109863281 -340.33599853515625 L 39.04199981689453 -340.33599853515625 L 39.033382415771484 -340.33599853515625 L 37.99800109863281 -340.33599853515625 L 37.99800109863281 -339.300537109375 L 37.99800109863281 -339.2919921875 L 37.99800109863281 -321.00201416015625 M -257.00299072265625 -336.00201416015625 L -257.00299072265625 -250.9969940185547 L -253.9980010986328 -250.9969940185547 L -253.9980010986328 -336.00201416015625 L -257.00299072265625 -336.00201416015625 M -45.59700012207031 -336.00299072265625 L -48.60200119018555 -336.00299072265625 L -48.60200119018555 -250.9980010986328 L -45.59700012207031 -250.9980010986328 L -45.59700012207031 -336.00299072265625 M 40.99800109863281 -359.66900634765625 L 41 -359.66900634765625 L 41.00299835205078 -359.66900634765625 L 41.00299835205078 -362 L 41.00299835205078 -379.00299072265625 L 41 -379.00299072265625 L 40.99800109863281 -379.00299072265625 L 37.99800109863281 -379.00299072265625 L 37.99800109863281 -362 L 37.99800109863281 -359.66900634765625 L 40.99800109863281 -359.66900634765625 z" fill="none" stroke="rgb(255,0,0)" stroke-width="0.001mm" />
</svg>