<?xml version="1.0" standalone="no"?>
<!DOCTYPE svg PUBLIC "-//W3C//DTD SVG 1.1//EN"
  "http://www.w3.org/Graphics/SVG/1.1/DTD/svg11.dtd">
<svg width="219mm" height="87mm" viewBox="-446 275 219 87" xmlns="http://www.w3.org/2000/svg" version="1.1">
	<title>svgOutput</title>
	<desc>made with tinkercad</desc>
<path d="M -445 276 L -441.99798583984375 276 L -366.00299072265625 276 L -345.99798583984375 276 L -231.0030059814453 276 L -228 276 L -228 292.8970031738281 L -231.0030059814453 292.8970031738281 L -231.0030059814453 309.89898681640625 L -228 309.89898681640625 L -228 326.9010009765625 L -231.0030059814453 326.9010009765625 L -231.0030059814453 327.00299072265625 L -231.0030059814453 343.9020080566406 L -228 343.9020080566406 L -228 361 L -231.0030059814453 361 L -366.00299072265625 361 L -441.99798583984375 361 L -445 361 L -445 344.10198974609375 L -441.99798583984375 344.10198974609375 L -441.99798583984375 327.10101318359375 L -445 327.10101318359375 L -445 310.0989990234375 L -441.99798583984375 310.0989990234375 L -441.99798583984375 293.09698486328125 L -445 293.09698486328125 L -445 276 M -346.4280090332031 319.90399169921875 L -346.3240966796875 319.4880065917969 L -346.19000244140625 318.95098876953125 L -346.0459899902344 317.9800109863281 L -345.99798583984375 317 L -346.0459899902344 316.0199890136719 L -346.19000244140625 315.04901123046875 L -346.4280090332031 314.09600830078125 L -346.7590026855469 313.1719970703125 L -347.1789855957031 312.2850036621094 L -347.6830139160156 311.4429931640625 L -347.7921447753906 311.2959899902344 L -348.26800537109375 310.6549987792969 L -348.927001953125 309.927001953125 L -349.65399169921875 309.26800537109375 L -350.4429931640625 308.6830139160156 L -351.2850036621094 308.1789855957031 L -352.1719970703125 307.7590026855469 L -353.09600830078125 307.4280090332031 L -354.04901123046875 307.19000244140625 L -355.0199890136719 307.0459899902344 L -356 306.99798583984375 L -356.9800109863281 307.0459899902344 L -357.95098876953125 307.19000244140625 L -358.90399169921875 307.4280090332031 L -359.8280029296875 307.7590026855469 L -360.447998046875 308.0525817871094 L -360.7149963378906 308.1789855957031 L -361.5570068359375 308.6830139160156 L -362.34600830078125 309.26800537109375 L -363.072998046875 309.927001953125 L -363.73199462890625 310.6549987792969 L -364.2078552246094 311.2959899902344 L -364.3169860839844 311.4429931640625 L -364.8210144042969 312.2850036621094 L -365.2409973144531 313.1719970703125 L -365.5719909667969 314.09600830078125 L -365.80999755859375 315.04901123046875 L -365.9540100097656 316.0199890136719 L -366.00299072265625 317 L -365.9540100097656 317.9800109863281 L -365.80999755859375 318.95098876953125 L -365.6759033203125 319.4880065917969 L -365.5719909667969 319.90399169921875 L -365.2409973144531 320.8280029296875 L -364.8210144042969 321.7149963378906 L -364.3169860839844 322.5570068359375 L -363.73199462890625 323.34600830078125 L -363.072998046875 324.072998046875 L -362.34600830078125 324.73199462890625 L -361.5570068359375 325.3169860839844 L -360.7149963378906 325.8210144042969 L -360.447998046875 325.9474182128906 L -359.8280029296875 326.2409973144531 L -358.90399169921875 326.5719909667969 L -357.95098876953125 326.80999755859375 L -356.9800109863281 326.9540100097656 L -356 327.00299072265625 L -355.0199890136719 326.9540100097656 L -354.04901123046875 326.80999755859375 L -353.09600830078125 326.5719909667969 L -352.2560119628906 326.2710876464844 L -352.1719970703125 326.2409973144531 L -351.2850036621094 325.8210144042969 L -350.4429931640625 325.3169860839844 L -349.65399169921875 324.73199462890625 L -348.927001953125 324.072998046875 L -348.26800537109375 323.34600830078125 L -347.6830139160156 322.5570068359375 L -347.1789855957031 321.7149963378906 L -346.7590026855469 320.8280029296875 L -346.4280090332031 319.90399169921875 z" fill="none" stroke="rgb(255,0,0)" stroke-width="0.001mm" />
</svg>