<?xml version="1.0" standalone="no"?>
<!DOCTYPE svg PUBLIC "-//W3C//DTD SVG 1.1//EN"
  "http://www.w3.org/Graphics/SVG/1.1/DTD/svg11.dtd">
<svg width="422mm" height="292mm" viewBox="-452 -321 422 292" xmlns="http://www.w3.org/2000/svg" version="1.1">
	<title>svgOutput</title>
	<desc>made with tinkercad</desc>
<path d="M -451 -204 L -447.99798583984375 -204 L -447.99798583984375 -223.33399963378906 L -451 -223.33399963378906 L -451 -242.66799926757812 L -447.99798583984375 -242.66799926757812 L -447.99798583984375 -242.6699981689453 L -447.99798583984375 -262.00201416015625 L -451 -262.00201416015625 L -451 -281.33599853515625 L -447.99798583984375 -281.33599853515625 L -447.99798583984375 -300.6700134277344 L -451 -300.6700134277344 L -451 -320 L -447.99798583984375 -320 L -431.0050048828125 -320 L -431.0050048828125 -317.0979919433594 L -411.0039978027344 -317.0979919433594 L -411.0039978027344 -320 L -391.0039978027344 -320 L -391.0039978027344 -317.0979919433594 L -371.00299072265625 -317.0979919433594 L -371.00299072265625 -320 L -351.00299072265625 -320 L -351.00299072265625 -317.0979919433594 L -331.00201416015625 -317.0979919433594 L -331.00201416015625 -320 L -311.00201416015625 -320 L -311.00201416015625 -317.0979919433594 L -291.0010070800781 -317.0979919433594 L -291.0010070800781 -320 L -271.0010070800781 -320 L -271.0010070800781 -317.0979919433594 L -251 -317.0979919433594 L -251 -320 L -231 -320 L -231 -317.0979919433594 L -210.99899291992188 -317.0979919433594 L -210.99899291992188 -320 L -190.99899291992188 -320 L -190.99899291992188 -317.0979919433594 L -170.9980010986328 -317.0979919433594 L -170.9980010986328 -320 L -150.9980010986328 -320 L -150.9980010986328 -317.0979919433594 L -130.9969940185547 -317.0979919433594 L -130.9969940185547 -320 L -110.99700164794922 -320 L -110.99700164794922 -317.0979919433594 L -90.99600219726562 -317.0979919433594 L -90.99600219726562 -320 L -70.99600219726562 -320 L -70.99600219726562 -317.0979919433594 L -50.994998931884766 -317.0979919433594 L -50.994998931884766 -320 L -34 -320 L -31 -320 L -31 -312 L -31 -30 L -33.99800109863281 -30 L -34 -30 L -50.994998931884766 -30 L -50.994998931884766 -32.90299987792969 L -70.99600219726562 -32.90299987792969 L -70.99600219726562 -30 L -90.99600219726562 -30 L -90.99600219726562 -32.90299987792969 L -110.99700164794922 -32.90299987792969 L -110.99700164794922 -30 L -130.9969940185547 -30 L -130.9969940185547 -32.90299987792969 L -150.9980010986328 -32.90299987792969 L -150.9980010986328 -30 L -170.9980010986328 -30 L -170.9980010986328 -32.90299987792969 L -190.99899291992188 -32.90299987792969 L -190.99899291992188 -30 L -210.99899291992188 -30 L -210.99899291992188 -32.90299987792969 L -226.39100646972656 -32.90299987792969 L -226.39199829101562 -32.90299987792969 L -230.62860107421875 -32.90299987792969 L -230.63400268554688 -32.90299987792969 L -231 -32.90299987792969 L -231 -30 L -251 -30 L -251 -32.90299987792969 L -271.0010070800781 -32.90299987792969 L -271.0010070800781 -30 L -291.0010070800781 -30 L -291.0010070800781 -32.90299987792969 L -311.00201416015625 -32.90299987792969 L -311.00201416015625 -30 L -331.00201416015625 -30 L -331.00201416015625 -32.90299987792969 L -351.00299072265625 -32.90299987792969 L -351.00299072265625 -30 L -371.00299072265625 -30 L -371.00299072265625 -32.90299987792969 L -391.0039978027344 -32.90299987792969 L -391.0039978027344 -30 L -411.0039978027344 -30 L -411.0039978027344 -32.90299987792969 L -431.0050048828125 -32.90299987792969 L -431.0050048828125 -30 L -448 -30 L -451 -30 L -451 -32.90299987792969 L -451 -49.32899856567383 L -447.99798583984375 -49.32899856567383 L -447.99798583984375 -68.66300201416016 L -451 -68.66300201416016 L -451 -87.99700164794922 L -447.99798583984375 -87.99700164794922 L -447.99798583984375 -105.98159790039062 L -447.99798583984375 -105.99600219726562 L -447.99798583984375 -107.33000183105469 L -447.99798583984375 -107.33100128173828 L -451 -107.33100128173828 L -451 -126.66500091552734 L -447.99798583984375 -126.66500091552734 L -447.99798583984375 -145.9980010986328 L -451 -145.9980010986328 L -451 -165.33200073242188 L -447.99798583984375 -165.33200073242188 L -447.99798583984375 -184.66600036621094 L -451 -184.66600036621094 L -451 -204 M -34.00299835205078 -49.33000183105469 L -34 -49.33000183105469 L -33.99800109863281 -49.33000183105469 L -33.99800109863281 -68.66400146484375 L -34 -68.66400146484375 L -34.00299835205078 -68.66400146484375 L -37.00299835205078 -68.66400146484375 L -37.00299835205078 -49.33000183105469 L -34.00299835205078 -49.33000183105469 M -195.66400146484375 -129.11000061035156 L -193.0183563232422 -131.07200622558594 L -190.93499755859375 -132.61700439453125 L -186.57200622558594 -136.57200622558594 L -182.61700439453125 -140.93499755859375 L -179.11000061035156 -145.66400146484375 L -176.08299255371094 -150.71499633789062 L -173.56500244140625 -156.03799438476562 L -171.58099365234375 -161.58200073242188 L -170.14999389648438 -167.29400634765625 L -169.28599548339844 -173.11900329589844 L -168.9980010986328 -179 L -169.28599548339844 -184.88099670410156 L -170.14999389648438 -190.70599365234375 L -171.58099365234375 -196.41799926757812 L -171.64898681640625 -196.60800170898438 L -173.56500244140625 -201.96200561523438 L -176.08299255371094 -207.28500366210938 L -179.11000061035156 -212.33599853515625 L -182.61700439453125 -217.06500244140625 L -186.57200622558594 -221.42799377441406 L -190.93499755859375 -225.38299560546875 L -195.66400146484375 -228.88999938964844 L -196.60800170898438 -229.4557342529297 L -200.71499633789062 -231.91700744628906 L -206.03799438476562 -234.43499755859375 L -211.58200073242188 -236.41900634765625 L -217.29400634765625 -237.85000610351562 L -223.11900329589844 -238.71400451660156 L -229 -239.0030059814453 L -234.88099670410156 -238.71400451660156 L -240.70599365234375 -237.85000610351562 L -246.41799926757812 -236.41900634765625 L -251.96200561523438 -234.43499755859375 L -257.2850036621094 -231.91700744628906 L -262.1440124511719 -229.00506591796875 L -262.33599853515625 -228.88999938964844 L -267.06500244140625 -225.38299560546875 L -271.4280090332031 -221.42799377441406 L -275.38299560546875 -217.06500244140625 L -278.8900146484375 -212.33599853515625 L -281.9179992675781 -207.28500366210938 L -284.43499755859375 -201.96200561523438 L -286.35101318359375 -196.60800170898438 L -286.41900634765625 -196.41799926757812 L -287.8500061035156 -190.70599365234375 L -288.7139892578125 -184.88099670410156 L -289.00299072265625 -179 L -288.7139892578125 -173.11900329589844 L -287.8500061035156 -167.29400634765625 L -286.41900634765625 -161.58200073242188 L -284.43499755859375 -156.03799438476562 L -281.9179992675781 -150.71499633789062 L -278.8900146484375 -145.66400146484375 L -275.38299560546875 -140.93499755859375 L -271.4280090332031 -136.57200622558594 L -267.06500244140625 -132.61700439453125 L -264.9816589355469 -131.07200622558594 L -262.33599853515625 -129.11000061035156 L -257.2850036621094 -126.08200073242188 L -251.96200561523438 -123.56500244140625 L -246.41799926757812 -121.58100128173828 L -240.70599365234375 -120.1500015258789 L -234.88099670410156 -119.28600311279297 L -229 -118.99700164794922 L -223.11900329589844 -119.28600311279297 L -217.29400634765625 -120.1500015258789 L -211.58200073242188 -121.58100128173828 L -206.03799438476562 -123.56500244140625 L -200.71499633789062 -126.08200073242188 L -195.66400146484375 -129.11000061035156 M -334.9469909667969 -219.0469970703125 L -322.92498779296875 -231.06900024414062 L -325.0450134277344 -233.19000244140625 L -325.0459899902344 -233.1909942626953 L -337.0679931640625 -221.16900634765625 L -337.0664978027344 -221.16749572753906 L -334.99798583984375 -219.0980224609375 L -334.9469909667969 -219.0469970703125 M -288.9809875488281 -269.2560119628906 L -286.8594970703125 -267.1344909667969 L -286.8590087890625 -267.1340026855469 L -274.84698486328125 -279.1470031738281 L -274.8380126953125 -279.156005859375 L -276.9590148925781 -281.27801513671875 L -288.9809875488281 -269.2560119628906 M -175.5749969482422 -269.1960144042969 L -185.5260009765625 -279.1470031738281 L -187.5970001220703 -281.2179870605469 L -187.59800720214844 -281.2170104980469 L -189.66702270507812 -279.1470031738281 L -189.71800231933594 -279.09600830078125 L -177.6959991455078 -267.07501220703125 L -175.57550048828125 -269.19549560546875 L -175.5749969482422 -269.1960144042969 M -165.6750030517578 -255.05299377441406 L -153.6529998779297 -243.031005859375 L -151.531494140625 -245.15249633789062 L -151.531005859375 -245.1529998779297 L -163.55299377441406 -257.17401123046875 L -165.6739959716797 -255.0540008544922 L -165.6750030517578 -255.05299377441406 M -313.08349609375 -107.76349639892578 L -313.0840148925781 -107.76300048828125 L -301.06298828125 -95.74099731445312 L -298.9410095214844 -97.86299896240234 L -310.9630126953125 -109.88400268554688 L -310.9635009765625 -109.88349914550781 L -313.08349609375 -107.76349639892578 M -325.1054992675781 -119.7854995727539 L -322.9855041503906 -121.90550231933594 L -322.9849853515625 -121.90599822998047 L -334.99798583984375 -133.9199981689453 L -335.0060119628906 -133.92799377441406 L -335.00750732421875 -133.92649841308594 L -337.1264953613281 -131.8074951171875 L -337.12799072265625 -131.80599975585938 L -325.1059875488281 -119.78500366210938 L -325.1054992675781 -119.7854995727539 M -274.89801025390625 -73.81900024414062 L -286.91900634765625 -85.84100341796875 L -289.0409851074219 -83.71900177001953 L -277.0190124511719 -71.697998046875 L -274.9490051269531 -73.76799774169922 L -274.89801025390625 -73.81900024414062 M -189.76300048828125 -279.1470031738281 L -189.76300048828125 -282.1520080566406 L -206.76400756835938 -282.1520080566406 L -206.76400756835938 -279.1470031738281 L -189.7689971923828 -279.1470031738281 L -189.76300048828125 -279.1470031738281 M -153.71249389648438 -109.82450103759766 L -153.71299743652344 -109.82499694824219 L -165.73399353027344 -97.8030014038086 L -163.61349487304688 -95.68150329589844 L -163.61300659179688 -95.68099975585938 L -151.59100341796875 -107.7030029296875 L -153.71249389648438 -109.82450103759766 M -126.61299896240234 -133.91299438476562 L -126.61299896240234 -136.9239959716797 L -126.61299896240234 -136.92726135253906 L -126.61299896240234 -150.91799926757812 L -129.6179962158203 -150.91799926757812 L -129.6179962158203 -133.9219970703125 L -129.6179962158203 -133.91900634765625 L -129.6179962158203 -133.91299438476562 L -126.61299896240234 -133.91299438476562 M -175.63499450683594 -83.66000366210938 L -177.7554931640625 -85.78050231933594 L -177.75599670410156 -85.78099822998047 L -189.7689971923828 -73.76799774169922 L -189.7779998779297 -73.75900268554688 L -189.77699279785156 -73.75800323486328 L -187.65699768066406 -71.63800048828125 L -175.63499450683594 -83.66000366210938 M -127.5479965209961 -131.7469940185547 L -129.6179962158203 -133.81700134277344 L -129.66900634765625 -133.8679962158203 L -141.6909942626953 -121.84600067138672 L -139.56900024414062 -119.7249984741211 L -127.5479965209961 -131.7469940185547 M -35.966617584228516 -223.33599853515625 L -37.00299835205078 -223.33599853515625 L -37.00299835205078 -222.29953002929688 L -37.00299835205078 -222.29100036621094 L -37.00299835205078 -204.0019989013672 L -34.00299835205078 -204.0019989013672 L -34 -204.0019989013672 L -33.99800109863281 -204.0019989013672 L -33.99800109863281 -223.33599853515625 L -34 -223.33599853515625 L -34.00299835205078 -223.33599853515625 L -35.95800018310547 -223.33599853515625 L -35.966617584228516 -223.33599853515625 M -192.77174377441406 -70.76300048828125 L -189.84800720214844 -70.76300048828125 L -189.84800720214844 -73.68699645996094 L -189.84800720214844 -73.68900299072266 L -189.84800720214844 -73.76799774169922 L -206.8489990234375 -73.76799774169922 L -206.8489990234375 -70.76300048828125 L -192.7740020751953 -70.76300048828125 L -192.77174377441406 -70.76300048828125 M -338.00201416015625 -150.99899291992188 L -338.00201416015625 -136.92425537109375 L -338.00201416015625 -136.92074584960938 L -338.00201416015625 -133.9980010986328 L -335.0790100097656 -133.9980010986328 L -335.07598876953125 -133.9980010986328 L -334.99798583984375 -133.9980010986328 L -334.99798583984375 -150.99899291992188 L -338.00201416015625 -150.99899291992188 M -338.00201416015625 -168 L -334.99798583984375 -168 L -334.99798583984375 -185.00100708007812 L -338.00201416015625 -185.00100708007812 L -338.00201416015625 -168 M -37.00299835205078 -87.99800109863281 L -34.00299835205078 -87.99800109863281 L -34 -87.99800109863281 L -33.99800109863281 -87.99800109863281 L -33.99800109863281 -107.33200073242188 L -34 -107.33200073242188 L -34.00299835205078 -107.33200073242188 L -37.00299835205078 -107.33200073242188 L -37.00299835205078 -87.99800109863281 M -37.00299835205078 -165.33399963378906 L -34.00299835205078 -165.33399963378906 L -34 -165.33399963378906 L -33.99800109863281 -165.33399963378906 L -33.99800109863281 -184.66799926757812 L -34 -184.66799926757812 L -34.00299835205078 -184.66799926757812 L -37.00299835205078 -184.66799926757812 L -37.00299835205078 -165.33399963378906 M -257.85198974609375 -70.76300048828125 L -257.85198974609375 -73.76799774169922 L -274.843994140625 -73.76799774169922 L -274.8470153808594 -73.76799774169922 L -274.8529968261719 -73.76799774169922 L -274.8529968261719 -70.76300048828125 L -271.8422546386719 -70.76300048828125 L -271.8387451171875 -70.76300048828125 L -257.85198974609375 -70.76300048828125 M -223.85000610351562 -70.76300048828125 L -223.85000610351562 -73.76799774169922 L -240.8509979248047 -73.76799774169922 L -240.8509979248047 -70.76300048828125 L -223.85000610351562 -70.76300048828125 M -37.00299835205078 -282.1520080566406 L -37.00299835205078 -281.3370056152344 L -34.00299835205078 -281.3370056152344 L -34 -281.3370056152344 L -33.99800109863281 -281.3370056152344 L -33.99800109863281 -300.6709899902344 L -34 -300.6709899902344 L -34.00299835205078 -300.6709899902344 L -37.00299835205078 -300.6709899902344 L -37.00299835205078 -282.1520080566406 M -223.76499938964844 -279.1470031738281 L -223.76499938964844 -282.1520080566406 L -240.76600646972656 -282.1520080566406 L -240.76600646972656 -279.1470031738281 L -223.76499938964844 -279.1470031738281 M -34.00299835205078 -126.66600036621094 L -34 -126.66600036621094 L -33.99800109863281 -126.66600036621094 L -33.99800109863281 -146 L -34 -146 L -34.00299835205078 -146 L -37.00299835205078 -146 L -37.00299835205078 -126.66600036621094 L -34.00299835205078 -126.66600036621094 M -257.7669982910156 -279.1470031738281 L -257.7669982910156 -282.1520080566406 L -271.8420104980469 -282.1520080566406 L -271.8422546386719 -282.1520080566406 L -274.76800537109375 -282.1520080566406 L -274.76800537109375 -279.22601318359375 L -274.76800537109375 -279.22601318359375 L -274.76800537109375 -279.1470031738281 L -257.7669982910156 -279.1470031738281 M -34.00299835205078 -242.66900634765625 L -34 -242.66900634765625 L -33.99800109863281 -242.66900634765625 L -33.99800109863281 -262.00299072265625 L -34 -262.00299072265625 L -34.00299835205078 -262.00299072265625 L -37.00299835205078 -262.00299072265625 L -37.00299835205078 -242.66900634765625 L -34.00299835205078 -242.66900634765625 M -129.60899353027344 -218.98800659179688 L -127.48799896240234 -221.10899353027344 L -139.50999450683594 -233.13099670410156 L -141.63099670410156 -231.00900268554688 L -129.6179962158203 -218.9969940185547 L -129.60899353027344 -218.98800659179688 M -338.00201416015625 -202.0019989013672 L -334.99798583984375 -202.0019989013672 L -334.99798583984375 -218.99099731445312 L -334.99798583984375 -218.99600219726562 L -334.99798583984375 -219.0030059814453 L -338.00201416015625 -219.0030059814453 L -338.00201416015625 -215.99200439453125 L -338.00201416015625 -215.9867401123047 L -338.00201416015625 -202.0019989013672 M -298.8810119628906 -255.11300659179688 L -301.00299072265625 -257.2340087890625 L -313.02398681640625 -245.21200561523438 L -310.90301513671875 -243.09100341796875 L -298.8810119628906 -255.11300659179688 M -129.6179962158203 -201.91299438476562 L -126.61299896240234 -201.91299438476562 L -126.61299896240234 -215.99099731445312 L -126.61299896240234 -215.99224853515625 L -126.61299896240234 -218.91799926757812 L -129.53900146484375 -218.91799926757812 L -129.5399932861328 -218.91799926757812 L -129.6179962158203 -218.91799926757812 L -129.6179962158203 -201.91299438476562 M -129.6179962158203 -167.91299438476562 L -126.61299896240234 -167.91299438476562 L -126.61299896240234 -184.91799926757812 L -129.6179962158203 -184.91799926757812 L -129.6179962158203 -167.91299438476562 z" fill="none" stroke="rgb(255,0,0)" stroke-width="0.001mm" />
</svg>