<?xml version="1.0" standalone="no"?>
<!DOCTYPE svg PUBLIC "-//W3C//DTD SVG 1.1//EN"
  "http://www.w3.org/Graphics/SVG/1.1/DTD/svg11.dtd">
<svg width="422mm" height="258mm" viewBox="-475 -143 422 258" xmlns="http://www.w3.org/2000/svg" version="1.1">
	<title>svgOutput</title>
	<desc>made with tinkercad</desc>
<path d="M -474 -32.000999450683594 L -470.99798583984375 -32.000999450683594 L -470.99798583984375 -52.00199890136719 L -474 -52.00199890136719 L -474 -72.00199890136719 L -470.99798583984375 -72.00199890136719 L -470.99798583984375 -92.00199890136719 L -474 -92.00199890136719 L -474 -112.00199890136719 L -470.99798583984375 -112.00199890136719 L -470.99798583984375 -132.0030059814453 L -474 -132.0030059814453 L -474 -135.9980010986328 L -470.99798583984375 -135.9980010986328 L -454.00201416015625 -135.9980010986328 L -454.00201416015625 -136 L -454.00201416015625 -139 L -470.99798583984375 -139 L -474 -139 L -474 -142 L -54 -142 L -54 -139 L -57.00299835205078 -139 L -73.99800109863281 -139 L -73.99800109863281 -136 L -73.99800109863281 -135.9980010986328 L -60.00299835205078 -135.9980010986328 L -60.00299835205078 -132.0050048828125 L -57.00299835205078 -132.0050048828125 L -57.00299835205078 -132 L -57 -132 L -57 -132.0050048828125 L -56.99800109863281 -132.0050048828125 L -56.99800109863281 -136 L -54 -136 L -54 108 L -56.99800109863281 108 L -56.99800109863281 88.00599670410156 L -57 88.00599670410156 L -57 88.00199890136719 L -57.00299835205078 88.00199890136719 L -57.00299835205078 88.00599670410156 L -60.00299835205078 88.00599670410156 L -60.00299835205078 107.99800109863281 L -73.99800109863281 107.99800109863281 L -73.99800109863281 108 L -73.99800109863281 111 L -54 111 L -54 114 L -474 114 L -474 111 L -454.00201416015625 111 L -454.00201416015625 108 L -454.00201416015625 107.99800109863281 L -470.99798583984375 107.99800109863281 L -474 107.99800109863281 L -474 88 L -470.99798583984375 88 L -470.99798583984375 68 L -474 68 L -474 48 L -470.99798583984375 48 L -470.99798583984375 27.999000549316406 L -474 27.999000549316406 L -474 7.999000072479248 L -470.99798583984375 7.999000072479248 L -470.99798583984375 -12.00100040435791 L -474 -12.00100040435791 L -474 -32.000999450683594 M -57 -92.00299835205078 L -56.99800109863281 -92.00299835205078 L -56.99800109863281 -112.00399780273438 L -57 -112.00399780273438 L -57.00299835205078 -112.00399780273438 L -60.00299835205078 -112.00399780273438 L -60.00299835205078 -92.00299835205078 L -57.00299835205078 -92.00299835205078 L -57.00299835205078 -92 L -57 -92 L -57 -92.00299835205078 M -57 -52.000999450683594 L -56.99800109863281 -52.000999450683594 L -56.99800109863281 -72.00199890136719 L -57 -72.00199890136719 L -57.00299835205078 -72.00199890136719 L -60.00299835205078 -72.00199890136719 L -60.00299835205078 -52.000999450683594 L -57.00299835205078 -52.000999450683594 L -57.00299835205078 -51.999000549316406 L -57 -51.999000549316406 L -57 -52.000999450683594 M -57 48.00400161743164 L -57 48.00199890136719 L -57.00299835205078 48.00199890136719 L -57.00299835205078 48.00400161743164 L -60.00299835205078 48.00400161743164 L -60.00299835205078 68.00499725341797 L -57.00299835205078 68.00499725341797 L -57 68.00499725341797 L -56.99800109863281 68.00499725341797 L -56.99800109863281 48.00400161743164 L -57 48.00400161743164 M -57 8.001999855041504 L -57 8.00100040435791 L -57.00299835205078 8.00100040435791 L -57.00299835205078 8.001999855041504 L -60.00299835205078 8.001999855041504 L -60.00299835205078 28.003000259399414 L -57.00299835205078 28.003000259399414 L -57 28.003000259399414 L -56.99800109863281 28.003000259399414 L -56.99800109863281 8.001999855041504 L -57 8.001999855041504 M -354.0010070800781 108 L -354.0010070800781 111 L -334.0010070800781 111 L -334.0010070800781 108 L -334.0010070800781 107.99800109863281 L -354.0010070800781 107.99800109863281 L -354.0010070800781 108 M -374.0010070800781 108 L -374.0010070800781 107.99800109863281 L -394.00201416015625 107.99800109863281 L -394.00201416015625 108 L -394.00201416015625 111 L -374.0010070800781 111 L -374.0010070800781 108 M -314.0010070800781 108 L -314.0010070800781 111 L -294 111 L -294 108 L -294 107.99800109863281 L -314.0010070800781 107.99800109863281 L -314.0010070800781 108 M -414.00201416015625 108 L -414.00201416015625 107.99800109863281 L -434.00201416015625 107.99800109863281 L -434.00201416015625 108 L -434.00201416015625 111 L -414.00201416015625 111 L -414.00201416015625 108 M -274 108 L -274 111 L -254 111 L -254 108 L -254 107.99800109863281 L -274 107.99800109863281 L -274 108 M -173.99899291992188 111 L -173.99899291992188 108 L -173.99899291992188 107.99800109863281 L -193.99899291992188 107.99800109863281 L -193.99899291992188 108 L -193.99899291992188 111 L -173.99899291992188 111 M -213.99899291992188 111 L -213.99899291992188 108 L -213.99899291992188 107.99800109863281 L -234 107.99800109863281 L -234 108 L -234 111 L -213.99899291992188 111 M -133.9980010986328 -136 L -133.9980010986328 -139 L -153.99899291992188 -139 L -153.99899291992188 -136 L -153.99899291992188 -135.9980010986328 L -133.9980010986328 -135.9980010986328 L -133.9980010986328 -136 M -133.9980010986328 111 L -133.9980010986328 108 L -133.9980010986328 107.99800109863281 L -153.99899291992188 107.99800109863281 L -153.99899291992188 108 L -153.99899291992188 111 L -133.9980010986328 111 M -93.99800109863281 -136 L -93.99800109863281 -139 L -113.99800109863281 -139 L -113.99800109863281 -136 L -113.99800109863281 -135.9980010986328 L -93.99800109863281 -135.9980010986328 L -93.99800109863281 -136 M -93.99800109863281 111 L -93.99800109863281 108 L -93.99800109863281 107.99800109863281 L -113.99800109863281 107.99800109863281 L -113.99800109863281 108 L -113.99800109863281 111 L -93.99800109863281 111 M -213.99899291992188 -136 L -213.99899291992188 -139 L -234 -139 L -234 -136 L -234 -135.9980010986328 L -213.99899291992188 -135.9980010986328 L -213.99899291992188 -136 M -193.99899291992188 -136 L -193.99899291992188 -135.9980010986328 L -173.99899291992188 -135.9980010986328 L -173.99899291992188 -136 L -173.99899291992188 -139 L -193.99899291992188 -139 L -193.99899291992188 -136 M -254 -136 L -254 -139 L -274 -139 L -274 -136 L -274 -135.9980010986328 L -254 -135.9980010986328 L -254 -136 M -294 -136 L -294 -139 L -314.0010070800781 -139 L -314.0010070800781 -136 L -314.0010070800781 -135.9980010986328 L -294 -135.9980010986328 L -294 -136 M -57 -32 L -57.00299835205078 -32 L -60.00299835205078 -32 L -60.00299835205078 -11.99899959564209 L -57.00299835205078 -11.99899959564209 L -57 -11.99899959564209 L -56.99800109863281 -11.99899959564209 L -56.99800109863281 -32 L -57 -32 M -374.0010070800781 -136 L -374.0010070800781 -139 L -394.00201416015625 -139 L -394.00201416015625 -136 L -394.00201416015625 -135.9980010986328 L -374.0010070800781 -135.9980010986328 L -374.0010070800781 -136 M -434.00201416015625 -136 L -434.00201416015625 -135.9980010986328 L -414.00201416015625 -135.9980010986328 L -414.00201416015625 -136 L -414.00201416015625 -139 L -434.00201416015625 -139 L -434.00201416015625 -136 M -354.0010070800781 -136 L -354.0010070800781 -135.9980010986328 L -334.0010070800781 -135.9980010986328 L -334.0010070800781 -136 L -334.0010070800781 -139 L -354.0010070800781 -139 L -354.0010070800781 -136 z" fill="none" stroke="rgb(255,0,0)" stroke-width="0.001mm" />
</svg>