<?xml version="1.0" standalone="no"?>
<!DOCTYPE svg PUBLIC "-//W3C//DTD SVG 1.1//EN"
  "http://www.w3.org/Graphics/SVG/1.1/DTD/svg11.dtd">
<svg width="422mm" height="258mm" viewBox="-459 -248.5 422 258" xmlns="http://www.w3.org/2000/svg" version="1.1">
	<title>svgOutput</title>
	<desc>made with tinkercad</desc>
<path d="M -458 -57.49700164794922 L -454.99798583984375 -57.49700164794922 L -454.99798583984375 -77.49800109863281 L -458 -77.49800109863281 L -458 -97.49800109863281 L -454.99798583984375 -97.49800109863281 L -454.99798583984375 -117.4990005493164 L -458 -117.4990005493164 L -458 -137.5 L -454.99798583984375 -137.5 L -454.99798583984375 -157.5 L -458 -157.5 L -458 -177.50100708007812 L -454.99798583984375 -177.50100708007812 L -454.99798583984375 -197.50100708007812 L -458 -197.50100708007812 L -458 -217.5019989013672 L -454.99798583984375 -217.5019989013672 L -454.99798583984375 -237.5030059814453 L -458 -237.5030059814453 L -458 -241.4980010986328 L -454.99798583984375 -241.4980010986328 L -438.00201416015625 -241.4980010986328 L -438.00201416015625 -241.5 L -438.00201416015625 -244.5 L -454.99798583984375 -244.5 L -458 -244.5 L -458 -247.5 L -38 -247.5 L -38 -244.5 L -41.00299835205078 -244.5 L -57.99800109863281 -244.5 L -57.99800109863281 -241.5 L -57.99800109863281 -241.4980010986328 L -44.00299835205078 -241.4980010986328 L -44.00299835205078 -237.5050048828125 L -41.00299835205078 -237.5050048828125 L -41.00299835205078 -237.5 L -41 -237.5 L -41 -237.5050048828125 L -40.99800109863281 -237.5050048828125 L -40.99800109863281 -241.5 L -38 -241.5 L -38 2.5 L -40.99800109863281 2.5 L -40.99800109863281 -17.493999481201172 L -41 -17.493999481201172 L -41 -17.49799919128418 L -41.00299835205078 -17.49799919128418 L -41.00299835205078 -17.493999481201172 L -44.00299835205078 -17.493999481201172 L -44.00299835205078 2.497999906539917 L -57.99800109863281 2.497999906539917 L -57.99800109863281 2.5 L -57.99800109863281 5.5 L -41.00299835205078 5.5 L -38 5.5 L -38 8.5 L -458 8.5 L -458 5.5 L -454.99798583984375 5.5 L -438.00201416015625 5.5 L -438.00201416015625 2.5 L -438.00201416015625 2.497999906539917 L -454.99798583984375 2.497999906539917 L -458 2.497999906539917 L -458 -17.496000289916992 L -454.99798583984375 -17.496000289916992 L -454.99798583984375 -37.49599838256836 L -458 -37.49599838256836 L -458 -57.49700164794922 M -41 -197.5030059814453 L -40.99800109863281 -197.5030059814453 L -40.99800109863281 -217.50399780273438 L -41 -217.50399780273438 L -41.00299835205078 -217.50399780273438 L -44.00299835205078 -217.50399780273438 L -44.00299835205078 -197.5030059814453 L -41.00299835205078 -197.5030059814453 L -41.00299835205078 -197.5 L -41 -197.5 L -41 -197.5030059814453 M -41 -157.50100708007812 L -40.99800109863281 -157.50100708007812 L -40.99800109863281 -177.5019989013672 L -41 -177.5019989013672 L -41.00299835205078 -177.5019989013672 L -44.00299835205078 -177.5019989013672 L -44.00299835205078 -157.50100708007812 L -41.00299835205078 -157.50100708007812 L -41.00299835205078 -157.49899291992188 L -41 -157.49899291992188 L -41 -157.50100708007812 M -41 -97.49800109863281 L -41 -97.4990005493164 L -41.00299835205078 -97.4990005493164 L -41.00299835205078 -97.49800109863281 L -44.00299835205078 -97.49800109863281 L -44.00299835205078 -77.49700164794922 L -41.00299835205078 -77.49700164794922 L -41 -77.49700164794922 L -40.99800109863281 -77.49700164794922 L -40.99800109863281 -97.49800109863281 L -41 -97.49800109863281 M -41 -57.49599838256836 L -41 -57.49800109863281 L -41.00299835205078 -57.49800109863281 L -41.00299835205078 -57.49599838256836 L -44.00299835205078 -57.49599838256836 L -44.00299835205078 -37.494998931884766 L -41.00299835205078 -37.494998931884766 L -41 -37.494998931884766 L -40.99800109863281 -37.494998931884766 L -40.99800109863281 -57.49599838256836 L -41 -57.49599838256836 M -137.99899291992188 2.5 L -137.99899291992188 5.5 L -117.99800109863281 5.5 L -117.99800109863281 2.5 L -117.99800109863281 2.497999906539917 L -137.99899291992188 2.497999906539917 L -137.99899291992188 2.5 M -197.99899291992188 2.5 L -197.99899291992188 2.497999906539917 L -218 2.497999906539917 L -218 2.5 L -218 5.5 L -197.99899291992188 5.5 L -197.99899291992188 2.5 M -157.99899291992188 2.5 L -157.99899291992188 2.497999906539917 L -177.99899291992188 2.497999906539917 L -177.99899291992188 2.5 L -177.99899291992188 5.5 L -157.99899291992188 5.5 L -157.99899291992188 2.5 M -97.99800109863281 2.5 L -97.99800109863281 5.5 L -77.99800109863281 5.5 L -77.99800109863281 2.5 L -77.99800109863281 2.497999906539917 L -97.99800109863281 2.497999906539917 L -97.99800109863281 2.5 M -238 2.5 L -238 2.497999906539917 L -258 2.497999906539917 L -258 2.5 L -258 5.5 L -238 5.5 L -238 2.5 M -318.0010070800781 5.5 L -318.0010070800781 2.5 L -318.0010070800781 2.497999906539917 L -338.0010070800781 2.497999906539917 L -338.0010070800781 2.5 L -338.0010070800781 5.5 L -318.0010070800781 5.5 M -398.00201416015625 5.5 L -398.00201416015625 2.5 L -398.00201416015625 2.497999906539917 L -418.00201416015625 2.497999906539917 L -418.00201416015625 2.5 L -418.00201416015625 5.5 L -398.00201416015625 5.5 M -398.00201416015625 -241.5 L -398.00201416015625 -244.5 L -418.00201416015625 -244.5 L -418.00201416015625 -241.5 L -418.00201416015625 -241.4980010986328 L -398.00201416015625 -241.4980010986328 L -398.00201416015625 -241.5 M -358.0010070800781 5.5 L -358.0010070800781 2.5 L -358.0010070800781 2.497999906539917 L -378.00201416015625 2.497999906539917 L -378.00201416015625 2.5 L -378.00201416015625 5.5 L -358.0010070800781 5.5 M -378.00201416015625 -244.5 L -378.00201416015625 -241.5 L -378.00201416015625 -241.4980010986328 L -358.0010070800781 -241.4980010986328 L -358.0010070800781 -241.5 L -358.0010070800781 -244.5 L -378.00201416015625 -244.5 M -278 5.5 L -278 2.5 L -278 2.497999906539917 L -298.0010070800781 2.497999906539917 L -298.0010070800781 2.5 L -298.0010070800781 5.5 L -278 5.5 M -318.0010070800781 -241.5 L -318.0010070800781 -244.5 L -338.0010070800781 -244.5 L -338.0010070800781 -241.5 L -338.0010070800781 -241.4980010986328 L -318.0010070800781 -241.4980010986328 L -318.0010070800781 -241.5 M -298.0010070800781 -241.5 L -298.0010070800781 -241.4980010986328 L -278 -241.4980010986328 L -278 -241.5 L -278 -244.5 L -298.0010070800781 -244.5 L -298.0010070800781 -241.5 M -258 -244.5 L -258 -241.5 L -258 -241.4980010986328 L -238 -241.4980010986328 L -238 -241.5 L -238 -244.5 L -258 -244.5 M -41 -117.4990005493164 L -40.99800109863281 -117.4990005493164 L -40.99800109863281 -137.5 L -41 -137.5 L -41.00299835205078 -137.5 L -44.00299835205078 -137.5 L -44.00299835205078 -117.4990005493164 L -41.00299835205078 -117.4990005493164 L -41 -117.4990005493164 M -177.99899291992188 -244.5 L -177.99899291992188 -241.5 L -177.99899291992188 -241.4980010986328 L -157.99899291992188 -241.4980010986328 L -157.99899291992188 -241.5 L -157.99899291992188 -244.5 L -177.99899291992188 -244.5 M -77.99800109863281 -241.5 L -77.99800109863281 -244.5 L -97.99800109863281 -244.5 L -97.99800109863281 -241.5 L -97.99800109863281 -241.4980010986328 L -77.99800109863281 -241.4980010986328 L -77.99800109863281 -241.5 M -218 -241.5 L -218 -241.4980010986328 L -197.99899291992188 -241.4980010986328 L -197.99899291992188 -241.5 L -197.99899291992188 -244.5 L -218 -244.5 L -218 -241.5 M -117.99800109863281 -241.5 L -117.99800109863281 -244.5 L -137.99899291992188 -244.5 L -137.99899291992188 -241.5 L -137.99899291992188 -241.4980010986328 L -117.99800109863281 -241.4980010986328 L -117.99800109863281 -241.5 z" fill="none" stroke="rgb(255,0,0)" stroke-width="0.001mm" />
</svg>