<?xml version="1.0" standalone="no"?>
<!DOCTYPE svg PUBLIC "-//W3C//DTD SVG 1.1//EN"
  "http://www.w3.org/Graphics/SVG/1.1/DTD/svg11.dtd">
<svg width="422mm" height="292mm" viewBox="71 -145 422 292" xmlns="http://www.w3.org/2000/svg" version="1.1">
	<title>svgOutput</title>
	<desc>made with tinkercad</desc>
<path d="M 432.0039978027344 146 L 432.0039978027344 143.0970001220703 L 412.00299072265625 143.0970001220703 L 412.00299072265625 146 L 392.00299072265625 146 L 392.00299072265625 143.0970001220703 L 372.00201416015625 143.0970001220703 L 372.00201416015625 146 L 352.00201416015625 146 L 352.00201416015625 143.0970001220703 L 332.0010070800781 143.0970001220703 L 332.0010070800781 146 L 312.0010070800781 146 L 312.0010070800781 143.0970001220703 L 292 143.0970001220703 L 292 146 L 272 146 L 272 143.0970001220703 L 251.99899291992188 143.0970001220703 L 251.99899291992188 146 L 231.99899291992188 146 L 231.99899291992188 143.0970001220703 L 211.9980010986328 143.0970001220703 L 211.9980010986328 146 L 191.9980010986328 146 L 191.9980010986328 143.0970001220703 L 171.9969940185547 143.0970001220703 L 171.9969940185547 146 L 151.9969940185547 146 L 151.9969940185547 143.0970001220703 L 131.99600219726562 143.0970001220703 L 131.99600219726562 146 L 111.99600219726562 146 L 111.99600219726562 143.0970001220703 L 91.99500274658203 143.0970001220703 L 91.99500274658203 146 L 75.00299835205078 146 L 72 146 L 72 126.6709976196289 L 75.00299835205078 126.6709976196289 L 75.00299835205078 107.33699798583984 L 72 107.33699798583984 L 72 88.00299835205078 L 75.00299835205078 88.00299835205078 L 75.00299835205078 68.66999816894531 L 75.00299835205078 64.802001953125 L 72 64.802001953125 L 72 63.85820007324219 L 72 1.1102230246251565e-16 L 72 -61.85820007324219 L 72 -62.427066802978516 L 72 -62.801998138427734 L 75.00299835205078 -62.801998138427734 L 75.00299835205078 -63.62816619873047 L 75.00299835205078 -65.44380950927734 L 75.00299835205078 -66.66999816894531 L 75.00299835205078 -86.00299835205078 L 72 -86.00299835205078 L 72 -105.33699798583984 L 75.00299835205078 -105.33699798583984 L 75.00299835205078 -124.6709976196289 L 72 -124.6709976196289 L 72 -144 L 75.00299835205078 -144 L 91.99500274658203 -144 L 91.99500274658203 -141.09800720214844 L 111.99600219726562 -141.09800720214844 L 111.99600219726562 -144 L 131.99600219726562 -144 L 131.99600219726562 -141.09800720214844 L 151.9969940185547 -141.09800720214844 L 151.9969940185547 -144 L 171.9969940185547 -144 L 171.9969940185547 -141.09800720214844 L 184.9980010986328 -141.09800720214844 L 187.9980010986328 -141.09800720214844 L 191.9980010986328 -141.09800720214844 L 191.9980010986328 -144 L 211.9980010986328 -144 L 211.9980010986328 -141.09800720214844 L 231.99899291992188 -141.09800720214844 L 231.99899291992188 -144 L 251.99899291992188 -144 L 251.99899291992188 -141.09800720214844 L 272 -141.09800720214844 L 272 -144 L 292 -144 L 292 -141.09800720214844 L 312.0010070800781 -141.09800720214844 L 312.0010070800781 -144 L 332.0010070800781 -144 L 332.0010070800781 -141.09800720214844 L 352.00201416015625 -141.09800720214844 L 352.00201416015625 -144 L 372.00201416015625 -144 L 372.00201416015625 -141.09800720214844 L 392.00299072265625 -141.09800720214844 L 392.00299072265625 -144 L 412.00299072265625 -144 L 412.00299072265625 -141.09800720214844 L 432.0039978027344 -141.09800720214844 L 432.0039978027344 -144 L 452.0039978027344 -144 L 452.0039978027344 -141.09800720214844 L 472.0050048828125 -141.09800720214844 L 472.0050048828125 -144 L 489 -144 L 492 -144 L 492 -141.09800720214844 L 492 -124.6709976196289 L 492 -105.33699798583984 L 492 -86.00299835205078 L 492 -66.66899871826172 L 492 -47.334999084472656 L 492 -28.00200080871582 L 492 -8.668000221252441 L 492 10.666000366210938 L 492 30 L 492 49.33399963378906 L 492 68.66799926757812 L 492 88.00199890136719 L 492 107.33599853515625 L 492 126.66999816894531 L 492 143.0970001220703 L 492 146 L 472.0050048828125 146 L 472.0050048828125 143.0970001220703 L 452.0039978027344 143.0970001220703 L 452.0039978027344 146 L 432.0039978027344 146 M 489 -66.66899871826172 L 489.00299072265625 -66.66899871826172 L 489.00299072265625 -86.00299835205078 L 489 -86.00299835205078 L 488.99798583984375 -86.00299835205078 L 485.99798583984375 -86.00299835205078 L 485.99798583984375 -66.66899871826172 L 488.99798583984375 -66.66899871826172 L 489 -66.66899871826172 M 489 -8.668000221252441 L 488.99798583984375 -8.668000221252441 L 485.99798583984375 -8.668000221252441 L 485.99798583984375 10.666000366210938 L 488.99798583984375 10.666000366210938 L 489 10.666000366210938 L 489.00299072265625 10.666000366210938 L 489.00299072265625 -8.668000221252441 L 489 -8.668000221252441 M 489 -47.334999084472656 L 488.99798583984375 -47.334999084472656 L 485.99798583984375 -47.334999084472656 L 485.99798583984375 -28.00200080871582 L 488.99798583984375 -28.00200080871582 L 489 -28.00200080871582 L 489.00299072265625 -28.00200080871582 L 489.00299072265625 -47.334999084472656 L 489 -47.334999084472656 M 489 -105.33699798583984 L 489.00299072265625 -105.33699798583984 L 489.00299072265625 -124.6709976196289 L 489 -124.6709976196289 L 488.99798583984375 -124.6709976196289 L 485.99798583984375 -124.6709976196289 L 485.99798583984375 -105.33699798583984 L 488.99798583984375 -105.33699798583984 L 489 -105.33699798583984 M 489 30 L 488.99798583984375 30 L 485.99798583984375 30 L 485.99798583984375 49.33399963378906 L 488.99798583984375 49.33399963378906 L 489 49.33399963378906 L 489.00299072265625 49.33399963378906 L 489.00299072265625 30 L 489 30 M 489 68.66799926757812 L 488.99798583984375 68.66799926757812 L 485.99798583984375 68.66799926757812 L 485.99798583984375 88.00199890136719 L 488.99798583984375 88.00199890136719 L 489 88.00199890136719 L 489.00299072265625 88.00199890136719 L 489.00299072265625 68.66799926757812 L 489 68.66799926757812 M 489 126.66999816894531 L 489.00299072265625 126.66999816894531 L 489.00299072265625 107.33599853515625 L 489 107.33599853515625 L 488.99798583984375 107.33599853515625 L 485.99798583984375 107.33599853515625 L 485.99798583984375 126.66999816894531 L 488.99798583984375 126.66999816894531 L 489 126.66999816894531 M 381.3699951171875 -55.012001037597656 L 393.3869934082031 -42.994998931884766 L 393.3909912109375 -42.99100112915039 L 395.5119934082031 -45.11199951171875 L 393.3869934082031 -47.23699951171875 L 383.4909973144531 -57.132999420166016 L 381.3705139160156 -55.01250076293945 L 381.3699951171875 -55.012001037597656 M 393.3869934082031 42.08599853515625 L 396.3869934082031 42.08599853515625 L 396.3869934082031 25.084999084472656 L 393.3869934082031 25.084999084472656 L 393.3869934082031 42.07899856567383 L 393.3869934082031 42.08000183105469 L 393.3869934082031 42.08599853515625 M 396.3869934082031 -39.994998931884766 L 396.3869934082031 -42.91600036621094 L 393.46600341796875 -42.91600036621094 L 393.3869934082031 -42.91600036621094 L 393.3869934082031 -25.916000366210938 L 396.3869934082031 -25.916000366210938 L 396.3869934082031 -39.994998931884766 M 248.1490020751953 102.23699951171875 L 248.1490020751953 105.23699951171875 L 265.14898681640625 105.23699951171875 L 265.14898681640625 102.23699951171875 L 248.15499877929688 102.23699951171875 L 248.1490020751953 102.23699951171875 M 357.26849365234375 78.19950103759766 L 359.3890075683594 80.31999969482422 L 371.4100036621094 68.29900360107422 L 369.28900146484375 66.1780014038086 L 357.26800537109375 78.1989974975586 L 357.26849365234375 78.19950103759766 M 184.9980010986328 -39.99599838256836 L 184.9980010986328 -26.000999450683594 L 187.9980010986328 -26.000999450683594 L 187.9980010986328 -42.994998931884766 L 187.9980010986328 -42.99599838256836 L 187.9980010986328 -43.000999450683594 L 184.9980010986328 -43.000999450683594 L 184.9980010986328 -39.99599838256836 M 187.91799926757812 42.000999450683594 L 187.9980010986328 42.000999450683594 L 187.9980010986328 25.000999450683594 L 184.9980010986328 25.000999450683594 L 184.9980010986328 42.000999450683594 L 187.91799926757812 42.000999450683594 M 234.01649475097656 -93.25650024414062 L 236.13800048828125 -91.13500213623047 L 248.15499877929688 -103.1520004272461 L 248.15899658203125 -103.15599822998047 L 246.03700256347656 -105.27799987792969 L 243.91099548339844 -103.1520004272461 L 234.01600646972656 -93.25700378417969 L 234.01649475097656 -93.25650024414062 M 200.07400512695312 -55.071998596191406 L 197.9530029296875 -57.19300079345703 L 187.9980010986328 -47.237998962402344 L 185.9320068359375 -45.172000885009766 L 187.9980010986328 -43.10599899291992 L 188.05299377441406 -43.05099868774414 L 200.07400512695312 -55.071998596191406 M 393.33099365234375 42.1349983215332 L 381.30999755859375 54.15599822998047 L 381.31048583984375 54.15650177001953 L 383.4309997558594 56.27799987792969 L 393.3869934082031 46.321998596191406 L 395.4519958496094 44.25699996948242 L 393.3869934082031 42.19102478027344 L 393.3315124511719 42.135501861572266 L 393.33099365234375 42.1349983215332 M 282.2340087890625 -106.1520004272461 L 282.2340087890625 -103.1520004272461 L 299.2349853515625 -103.1520004272461 L 299.2349853515625 -106.1520004272461 L 282.2340087890625 -106.1520004272461 M 265.2340087890625 -103.1520004272461 L 265.2340087890625 -106.1520004272461 L 248.23300170898438 -106.1520004272461 L 248.23300170898438 -103.2300033569336 L 248.23300170898438 -103.1520004272461 L 265.2340087890625 -103.1520004272461 M 316.2349853515625 -106.1520004272461 L 316.2349853515625 -103.1520004272461 L 333.2300109863281 -103.1520004272461 L 333.2349853515625 -103.1520004272461 L 333.2349853515625 -106.1520004272461 L 316.2349853515625 -106.1520004272461 M 224.11700439453125 -79.11399841308594 L 221.9949951171875 -81.23500061035156 L 209.9739990234375 -69.21399688720703 L 212.0955047607422 -67.09349822998047 L 212.0959930419922 -67.09300231933594 L 224.11700439453125 -79.11399841308594 M 347.3680114746094 92.34100341796875 L 345.24700927734375 90.22000122070312 L 333.22900390625 102.23699951171875 L 333.2250061035156 102.24099731445312 L 333.2254943847656 102.24150085449219 L 335.34698486328125 104.36199951171875 L 337.47198486328125 102.23699951171875 L 347.3680114746094 92.34100341796875 M 221.93499755859375 80.26000213623047 L 221.9355010986328 80.2594985961914 L 224.0570068359375 78.13899993896484 L 212.03599548339844 66.11799621582031 L 209.91400146484375 68.23899841308594 L 221.93499755859375 80.26000213623047 M 371.4700012207031 -69.15499877929688 L 359.4490051269531 -81.1760025024414 L 357.3269958496094 -79.05400085449219 L 369.3489990234375 -67.03299713134766 L 371.4695129394531 -69.15450286865234 L 371.4700012207031 -69.15499877929688 M 335.4070129394531 -105.21800231933594 L 333.34002685546875 -103.1520004272461 L 333.2850036621094 -103.09700012207031 L 345.3059997558594 -91.07499694824219 L 347.4280090332031 -93.1969985961914 L 337.4729919433594 -103.1520004272461 L 335.4070129394531 -105.21800231933594 M 236.0780029296875 90.16000366210938 L 233.95700073242188 92.28099822998047 L 243.91299438476562 102.23699951171875 L 245.97799682617188 104.302001953125 L 248.04299926757812 102.23699951171875 L 248.0989990234375 102.18099975585938 L 236.0780029296875 90.16000366210938 M 299.1499938964844 105.23699951171875 L 299.1499938964844 102.23699951171875 L 282.1499938964844 102.23699951171875 L 282.1499938964844 105.23699951171875 L 299.1499938964844 105.23699951171875 M 187.9929962158203 42.07600021362305 L 185.8719940185547 44.196998596191406 L 187.9980010986328 46.323001861572266 L 197.89300537109375 56.21799850463867 L 200.01499938964844 54.09700012207031 L 187.9980010986328 42.08100128173828 L 187.9929962158203 42.07600021362305 M 393.3869934082031 8.085000038146973 L 396.3869934082031 8.085000038146973 L 396.3869934082031 -8.916000366210938 L 393.3869934082031 -8.916000366210938 L 393.3869934082031 8.085000038146973 M 316.1499938964844 102.23699951171875 L 316.1499938964844 105.23699951171875 L 333.1510009765625 105.23699951171875 L 333.1510009765625 102.31600189208984 L 333.1510009765625 102.31500244140625 L 333.1510009765625 102.23699951171875 L 316.1499938964844 102.23699951171875 M 184.9980010986328 8 L 187.9980010986328 8 L 187.9980010986328 -9 L 184.9980010986328 -9 L 184.9980010986328 8 z" fill="none" stroke="rgb(255,0,0)" stroke-width="0.001mm" />
</svg>