<?xml version="1.0" standalone="no"?>
<!DOCTYPE svg PUBLIC "-//W3C//DTD SVG 1.1//EN"
  "http://www.w3.org/Graphics/SVG/1.1/DTD/svg11.dtd">
<svg width="422mm" height="292mm" viewBox="71 -438 422 292" xmlns="http://www.w3.org/2000/svg" version="1.1">
	<title>svgOutput</title>
	<desc>made with tinkercad</desc>
<path d="M 352.00201416015625 -147 L 352.00201416015625 -149.9029998779297 L 332.0010070800781 -149.9029998779297 L 332.0010070800781 -147 L 312.0010070800781 -147 L 312.0010070800781 -149.9029998779297 L 292 -149.9029998779297 L 292 -147 L 272 -147 L 272 -149.9029998779297 L 251.99899291992188 -149.9029998779297 L 251.99899291992188 -147 L 231.99899291992188 -147 L 231.99899291992188 -149.9029998779297 L 211.9980010986328 -149.9029998779297 L 211.9980010986328 -147 L 191.9980010986328 -147 L 191.9980010986328 -149.9029998779297 L 171.9969940185547 -149.9029998779297 L 171.9969940185547 -147 L 151.9969940185547 -147 L 151.9969940185547 -149.9029998779297 L 131.99600219726562 -149.9029998779297 L 131.99600219726562 -147 L 111.99600219726562 -147 L 111.99600219726562 -149.9029998779297 L 91.99500274658203 -149.9029998779297 L 91.99500274658203 -147 L 75.00299835205078 -147 L 72 -147 L 72 -166.32899475097656 L 75.00299835205078 -166.32899475097656 L 75.00299835205078 -185.66299438476562 L 72 -185.66299438476562 L 72 -204.9969940185547 L 75.00299835205078 -204.9969940185547 L 75.00299835205078 -224.3300018310547 L 75.00299835205078 -228.197998046875 L 72 -228.197998046875 L 72 -229.1417999267578 L 72 -262.1440124511719 L 72 -354.85821533203125 L 72 -355.42706298828125 L 72 -355.802001953125 L 75.00299835205078 -355.802001953125 L 75.00299835205078 -356.628173828125 L 75.00299835205078 -358.4438171386719 L 75.00299835205078 -359.6700134277344 L 75.00299835205078 -379.00299072265625 L 72 -379.00299072265625 L 72 -398.3370056152344 L 75.00299835205078 -398.3370056152344 L 75.00299835205078 -417.6709899902344 L 72 -417.6709899902344 L 72 -437 L 75.00299835205078 -437 L 91.99500274658203 -437 L 91.99500274658203 -434.0979919433594 L 111.99600219726562 -434.0979919433594 L 111.99600219726562 -437 L 131.99600219726562 -437 L 131.99600219726562 -434.0979919433594 L 151.9969940185547 -434.0979919433594 L 151.9969940185547 -437 L 171.9969940185547 -437 L 171.9969940185547 -434.0979919433594 L 191.9980010986328 -434.0979919433594 L 191.9980010986328 -437 L 211.9980010986328 -437 L 211.9980010986328 -434.0979919433594 L 231.99899291992188 -434.0979919433594 L 231.99899291992188 -437 L 251.99899291992188 -437 L 251.99899291992188 -434.0979919433594 L 272 -434.0979919433594 L 272 -437 L 292 -437 L 292 -434.0979919433594 L 312.0010070800781 -434.0979919433594 L 312.0010070800781 -437 L 332.0010070800781 -437 L 332.0010070800781 -434.0979919433594 L 352.00201416015625 -434.0979919433594 L 352.00201416015625 -437 L 372.00201416015625 -437 L 372.00201416015625 -434.0979919433594 L 392.00299072265625 -434.0979919433594 L 392.00299072265625 -437 L 412.00299072265625 -437 L 412.00299072265625 -434.0979919433594 L 432.0039978027344 -434.0979919433594 L 432.0039978027344 -437 L 452.0039978027344 -437 L 452.0039978027344 -434.0979919433594 L 472.0050048828125 -434.0979919433594 L 472.0050048828125 -437 L 489 -437 L 492 -437 L 492 -434 L 492 -157 L 492 -147 L 489 -147 L 472.0050048828125 -147 L 472.0050048828125 -149.9029998779297 L 452.0039978027344 -149.9029998779297 L 452.0039978027344 -147 L 432.0039978027344 -147 L 432.0039978027344 -149.9029998779297 L 412.00299072265625 -149.9029998779297 L 412.00299072265625 -147 L 392.00299072265625 -147 L 392.00299072265625 -149.9029998779297 L 372.00201416015625 -149.9029998779297 L 372.00201416015625 -147 L 352.00201416015625 -147 M 488.99798583984375 -166.3300018310547 L 489 -166.3300018310547 L 489.00299072265625 -166.3300018310547 L 489.00299072265625 -185.66400146484375 L 489 -185.66400146484375 L 488.99798583984375 -185.66400146484375 L 485.99798583984375 -185.66400146484375 L 485.99798583984375 -166.3300018310547 L 488.99798583984375 -166.3300018310547 M 489.00299072265625 -417.6709899902344 L 489 -417.6709899902344 L 488.99798583984375 -417.6709899902344 L 485.99798583984375 -417.6709899902344 L 485.99798583984375 -398.3370056152344 L 488.99798583984375 -398.3370056152344 L 489 -398.3370056152344 L 489.00299072265625 -398.3370056152344 L 489.00299072265625 -417.6709899902344 M 489 -359.66900634765625 L 489.00299072265625 -359.66900634765625 L 489.00299072265625 -379.00299072265625 L 489 -379.00299072265625 L 488.99798583984375 -379.00299072265625 L 485.99798583984375 -379.00299072265625 L 485.99798583984375 -359.66900634765625 L 488.99798583984375 -359.66900634765625 L 489 -359.66900634765625 M 488.99798583984375 -321.00201416015625 L 489 -321.00201416015625 L 489.00299072265625 -321.00201416015625 L 489.00299072265625 -340.33599853515625 L 489 -340.33599853515625 L 488.99798583984375 -340.33599853515625 L 485.99798583984375 -340.33599853515625 L 485.99798583984375 -321.00201416015625 L 488.99798583984375 -321.00201416015625 M 488.99798583984375 -263 L 485.99798583984375 -263 L 485.99798583984375 -243.66600036621094 L 488.99798583984375 -243.66600036621094 L 489 -243.66600036621094 L 489.00299072265625 -243.66600036621094 L 489.00299072265625 -263 L 489 -263 L 488.99798583984375 -263 M 488.99798583984375 -282.3340148925781 L 489 -282.3340148925781 L 489.00299072265625 -282.3340148925781 L 489.00299072265625 -301.6679992675781 L 489 -301.6679992675781 L 488.99798583984375 -301.6679992675781 L 485.99798583984375 -301.6679992675781 L 485.99798583984375 -282.3340148925781 L 488.99798583984375 -282.3340148925781 M 489.00299072265625 -224.33200073242188 L 489 -224.33200073242188 L 488.99798583984375 -224.33200073242188 L 485.99798583984375 -224.33200073242188 L 485.99798583984375 -204.9980010986328 L 488.99798583984375 -204.9980010986328 L 489 -204.9980010986328 L 489.00299072265625 -204.9980010986328 L 489.00299072265625 -224.33200073242188 z" fill="none" stroke="rgb(255,0,0)" stroke-width="0.001mm" />
</svg>