<?xml version="1.0" standalone="no"?>
<!DOCTYPE svg PUBLIC "-//W3C//DTD SVG 1.1//EN"
  "http://www.w3.org/Graphics/SVG/1.1/DTD/svg11.dtd">
<svg width="382.0039978027344mm" height="5mm" viewBox="-189.0019989013672 170 382.0039978027344 5" xmlns="http://www.w3.org/2000/svg" version="1.1">
	<title>svgOutput</title>
	<desc>made with tinkercad</desc>
<path d="M -168.0019989013672 171 L -168.0019989013672 174 L -188.0019989013672 174 L -188.0019989013672 171 L -168.0019989013672 171 M -128.0019989013672 171 L -128.0019989013672 174 L -148.0019989013672 174 L -148.0019989013672 171 L -128.0019989013672 171 M -88.0009994506836 171 L -88.0009994506836 174 L -108.0009994506836 174 L -108.0009994506836 171 L -88.0009994506836 171 M -48.000999450683594 171 L -48.000999450683594 174 L -68.0009994506836 174 L -68.0009994506836 171 L -48.000999450683594 171 M -8 171 L -8 174 L -28 174 L -28 171 L -8 171 M 172.0019989013672 174 L 172.0019989013672 171 L 192.0019989013672 171 L 192.0019989013672 174 L 172.0019989013672 174 M 132.0019989013672 174 L 132.0019989013672 171 L 152.0019989013672 171 L 152.0019989013672 174 L 132.0019989013672 174 M 92.0009994506836 174 L 92.0009994506836 171 L 112.0009994506836 171 L 112.0009994506836 174 L 92.0009994506836 174 M 32 171 L 32 174 L 12 174 L 12 171 L 32 171 M 72.0009994506836 171 L 72.0009994506836 174 L 52.000999450683594 174 L 52.000999450683594 171 L 72.0009994506836 171 z" fill="none" stroke="rgb(255,0,0)" stroke-width="0.001mm" />
</svg>