<?xml version="1.0" standalone="no"?>
<!DOCTYPE svg PUBLIC "-//W3C//DTD SVG 1.1//EN"
  "http://www.w3.org/Graphics/SVG/1.1/DTD/svg11.dtd">
<svg width="422mm" height="292mm" viewBox="-442 -469 422 292" xmlns="http://www.w3.org/2000/svg" version="1.1">
	<title>svgOutput</title>
	<desc>made with tinkercad</desc>
<path d="M -80.99600219726562 -178 L -80.99600219726562 -180.90199279785156 L -100.99700164794922 -180.90199279785156 L -100.99700164794922 -178 L -120.99700164794922 -178 L -120.99700164794922 -180.90199279785156 L -140.9980010986328 -180.90199279785156 L -140.9980010986328 -178 L -160.9980010986328 -178 L -160.9980010986328 -180.90199279785156 L -180.99899291992188 -180.90199279785156 L -180.99899291992188 -178 L -200.99899291992188 -178 L -200.99899291992188 -180.90199279785156 L -221 -180.90199279785156 L -221 -178 L -241 -178 L -241 -180.90199279785156 L -261.0010070800781 -180.90199279785156 L -261.0010070800781 -178 L -281.0010070800781 -178 L -281.0010070800781 -180.90199279785156 L -301.00201416015625 -180.90199279785156 L -301.00201416015625 -178 L -321.00201416015625 -178 L -321.00201416015625 -180.90199279785156 L -341.00299072265625 -180.90199279785156 L -341.00299072265625 -178 L -361.00299072265625 -178 L -361.00299072265625 -180.90199279785156 L -381.0039978027344 -180.90199279785156 L -381.0039978027344 -178 L -401.0039978027344 -178 L -401.0039978027344 -180.90199279785156 L -421.0050048828125 -180.90199279785156 L -421.0050048828125 -178 L -438 -178 L -441 -178 L -441 -180.90199279785156 L -441 -197.32899475097656 L -437.99798583984375 -197.32899475097656 L -437.99798583984375 -216.66299438476562 L -441 -216.66299438476562 L -441 -235.9969940185547 L -437.99798583984375 -235.9969940185547 L -437.99798583984375 -255.3300018310547 L -437.99798583984375 -255.33099365234375 L -441 -255.33099365234375 L -441 -274.6650085449219 L -437.99798583984375 -274.6650085449219 L -437.99798583984375 -293.99798583984375 L -441 -293.99798583984375 L -441 -313.3320007324219 L -437.99798583984375 -313.3320007324219 L -437.99798583984375 -332.6659851074219 L -441 -332.6659851074219 L -441 -352 L -437.99798583984375 -352 L -437.99798583984375 -371.3340148925781 L -441 -371.3340148925781 L -441 -390.6679992675781 L -437.99798583984375 -390.6679992675781 L -437.99798583984375 -390.6700134277344 L -437.99798583984375 -410.00201416015625 L -441 -410.00201416015625 L -441 -429.33599853515625 L -437.99798583984375 -429.33599853515625 L -437.99798583984375 -448.6700134277344 L -441 -448.6700134277344 L -441 -468 L -437.99798583984375 -468 L -421.0050048828125 -468 L -421.0050048828125 -465.09698486328125 L -401.0039978027344 -465.09698486328125 L -401.0039978027344 -468 L -381.0039978027344 -468 L -381.0039978027344 -465.09698486328125 L -361.00299072265625 -465.09698486328125 L -361.00299072265625 -468 L -341.00299072265625 -468 L -341.00299072265625 -465.09698486328125 L -321.00201416015625 -465.09698486328125 L -321.00201416015625 -468 L -301.00201416015625 -468 L -301.00201416015625 -465.09698486328125 L -281.0010070800781 -465.09698486328125 L -281.0010070800781 -468 L -261.0010070800781 -468 L -261.0010070800781 -465.09698486328125 L -241 -465.09698486328125 L -241 -468 L -221 -468 L -221 -465.09698486328125 L -200.99899291992188 -465.09698486328125 L -200.99899291992188 -468 L -180.99899291992188 -468 L -180.99899291992188 -465.09698486328125 L -160.9980010986328 -465.09698486328125 L -160.9980010986328 -468 L -140.9980010986328 -468 L -140.9980010986328 -465.09698486328125 L -120.99700164794922 -465.09698486328125 L -120.99700164794922 -468 L -100.99700164794922 -468 L -100.99700164794922 -465.09698486328125 L -80.99600219726562 -465.09698486328125 L -80.99600219726562 -468 L -60.99599838256836 -468 L -60.99599838256836 -465.09698486328125 L -40.994998931884766 -465.09698486328125 L -40.994998931884766 -468 L -24 -468 L -21 -468 L -21 -465.09698486328125 L -21 -448.6709899902344 L -24.003000259399414 -448.6709899902344 L -24.003000259399414 -429.3370056152344 L -21 -429.3370056152344 L -21 -410.00299072265625 L -24.003000259399414 -410.00299072265625 L -24.003000259399414 -390.66900634765625 L -21 -390.66900634765625 L -21 -371.3349914550781 L -24.003000259399414 -371.3349914550781 L -24.003000259399414 -352.00201416015625 L -21 -352.00201416015625 L -21 -332.6679992675781 L -24.003000259399414 -332.6679992675781 L -24.003000259399414 -313.3340148925781 L -21 -313.3340148925781 L -21 -294 L -24.003000259399414 -294 L -24.003000259399414 -274.6659851074219 L -21 -274.6659851074219 L -21 -255.33200073242188 L -24.003000259399414 -255.33200073242188 L -24.003000259399414 -235.9980010986328 L -21 -235.9980010986328 L -21 -216.66400146484375 L -24.003000259399414 -216.66400146484375 L -24.003000259399414 -197.3300018310547 L -21 -197.3300018310547 L -21 -180.90199279785156 L -21 -178 L -40.994998931884766 -178 L -40.994998931884766 -180.90199279785156 L -60.99599838256836 -180.90199279785156 L -60.99599838256836 -178 L -80.99600219726562 -178 z" fill="none" stroke="rgb(255,0,0)" stroke-width="0.001mm" />
</svg>