<?xml version="1.0" standalone="no"?>
<!DOCTYPE svg PUBLIC "-//W3C//DTD SVG 1.1//EN"
  "http://www.w3.org/Graphics/SVG/1.1/DTD/svg11.dtd">
<svg width="5mm" height="262.0030059814453mm" viewBox="208 -107.00199890136719 5 262.0030059814453" xmlns="http://www.w3.org/2000/svg" version="1.1">
	<title>svgOutput</title>
	<desc>made with tinkercad</desc>
<path d="M 209 134.00100708007812 L 212 134.00100708007812 L 212 154.00100708007812 L 209 154.00100708007812 L 209 134.00100708007812 M 209 94 L 212 94 L 212 114 L 209 114 L 209 94 M 212 -86.00199890136719 L 209 -86.00199890136719 L 209 -106.00199890136719 L 212 -106.00199890136719 L 212 -86.00199890136719 M 212 -46.00199890136719 L 209 -46.00199890136719 L 209 -66.00199890136719 L 212 -66.00199890136719 L 212 -46.00199890136719 M 212 -6.000999927520752 L 209 -6.000999927520752 L 209 -26.000999450683594 L 212 -26.000999450683594 L 212 -6.000999927520752 M 209 54 L 212 54 L 212 74 L 209 74 L 209 54 M 209 13.99899959564209 L 212 13.99899959564209 L 212 33.999000549316406 L 209 33.999000549316406 L 209 13.99899959564209 z" fill="none" stroke="rgb(255,0,0)" stroke-width="0.001mm" />
</svg>