<?xml version="1.0" standalone="no"?>
<!DOCTYPE svg PUBLIC "-//W3C//DTD SVG 1.1//EN"
  "http://www.w3.org/Graphics/SVG/1.1/DTD/svg11.dtd">
<svg width="422mm" height="302mm" viewBox="-209 -127 422 302" xmlns="http://www.w3.org/2000/svg" version="1.1">
	<title>svgOutput</title>
	<desc>made with tinkercad</desc>
<path d="M -88.00199890136719 174 L -88.00199890136719 170.9980010986328 L -108.00299835205078 170.9980010986328 L -108.00299835205078 174 L -128.0030059814453 174 L -128.0030059814453 170.9980010986328 L -148.00399780273438 170.9980010986328 L -148.00399780273438 174 L -168.00399780273438 174 L -168.00399780273438 170.9980010986328 L -188.0050048828125 170.9980010986328 L -188.0050048828125 174 L -204.9980010986328 174 L -208 174 L -208 154.00399780273438 L -204.9980010986328 154.00399780273438 L -204.9980010986328 134.00399780273438 L -208 134.00399780273438 L -208 114.00299835205078 L -204.9980010986328 114.00299835205078 L -204.9980010986328 94.00399780273438 L -204.9980010986328 90.00199890136719 L -208 90.00199890136719 L -208 89.02587890625 L -208 1.1102230246251565e-16 L -208 -41.02587890625 L -208 -41.61396026611328 L -208 -42.00199890136719 L -204.9980010986328 -42.00199890136719 L -204.9980010986328 -42.85636520385742 L -204.9980010986328 -44.7364387512207 L -204.9980010986328 -46.00400161743164 L -204.9980010986328 -66.00299835205078 L -208 -66.00299835205078 L -208 -86.00399780273438 L -204.9980010986328 -86.00399780273438 L -204.9980010986328 -106.00399780273438 L -208 -106.00399780273438 L -208 -126 L -204.9980010986328 -126 L -188.0050048828125 -126 L -188.0050048828125 -122.99800109863281 L -168.00399780273438 -122.99800109863281 L -168.00399780273438 -126 L -148.00399780273438 -126 L -148.00399780273438 -122.99800109863281 L -128.0030059814453 -122.99800109863281 L -128.0030059814453 -126 L -108.00299835205078 -126 L -108.00299835205078 -122.99800109863281 L -88.00199890136719 -122.99800109863281 L -88.00199890136719 -126 L -68.00199890136719 -126 L -68.00199890136719 -122.99800109863281 L -48.000999450683594 -122.99800109863281 L -48.000999450683594 -126 L -28.000999450683594 -126 L -28.000999450683594 -122.99800109863281 L -8 -122.99800109863281 L -8 -126 L 12 -126 L 12 -122.99800109863281 L 32.000999450683594 -122.99800109863281 L 32.000999450683594 -126 L 52.000999450683594 -126 L 52.000999450683594 -122.99800109863281 L 72.00199890136719 -122.99800109863281 L 72.00199890136719 -126 L 92.00199890136719 -126 L 92.00199890136719 -122.99800109863281 L 112.00299835205078 -122.99800109863281 L 112.00299835205078 -126 L 132.0030059814453 -126 L 132.0030059814453 -122.99800109863281 L 152.00399780273438 -122.99800109863281 L 152.00399780273438 -126 L 172.00399780273438 -126 L 172.00399780273438 -122.99800109863281 L 192.0050048828125 -122.99800109863281 L 192.0050048828125 -126 L 209 -126 L 212 -126 L 212 -122.99800109863281 L 212 -106.00399780273438 L 208.9980010986328 -106.00399780273438 L 208.9980010986328 -86.00399780273438 L 212 -86.00399780273438 L 212 -66.00299835205078 L 208.9980010986328 -66.00299835205078 L 208.9980010986328 -46.00299835205078 L 212 -46.00299835205078 L 212 -26.00200080871582 L 208.9980010986328 -26.00200080871582 L 208.9980010986328 -6.001999855041504 L 212 -6.001999855041504 L 212 13.99899959564209 L 208.9980010986328 13.99899959564209 L 208.9980010986328 34 L 212 34 L 212 54 L 208.9980010986328 54 L 208.9980010986328 74.0009994506836 L 212 74.0009994506836 L 212 94.0009994506836 L 208.9980010986328 94.0009994506836 L 208.9980010986328 114.00199890136719 L 212 114.00199890136719 L 212 134.0019989013672 L 208.9980010986328 134.0019989013672 L 208.9980010986328 154.0030059814453 L 212 154.0030059814453 L 212 170.9980010986328 L 212 174 L 192.0050048828125 174 L 192.0050048828125 170.9980010986328 L 172.00399780273438 170.9980010986328 L 172.00399780273438 174 L 152.00399780273438 174 L 152.00399780273438 170.9980010986328 L 132.0030059814453 170.9980010986328 L 132.0030059814453 174 L 112.00299835205078 174 L 112.00299835205078 170.9980010986328 L 92.00199890136719 170.9980010986328 L 92.00199890136719 174 L 72.00199890136719 174 L 72.00199890136719 170.9980010986328 L 52.000999450683594 170.9980010986328 L 52.000999450683594 174 L 32.000999450683594 174 L 32.000999450683594 170.9980010986328 L 12 170.9980010986328 L 12 174 L -8 174 L -8 170.9980010986328 L -28.000999450683594 170.9980010986328 L -28.000999450683594 174 L -48.000999450683594 174 L -48.000999450683594 170.9980010986328 L -68.00199890136719 170.9980010986328 L -68.00199890136719 174 L -88.00199890136719 174 z" fill="none" stroke="rgb(255,0,0)" stroke-width="0.001mm" />
</svg>