<?xml version="1.0" standalone="no"?>
<!DOCTYPE svg PUBLIC "-//W3C//DTD SVG 1.1//EN"
  "http://www.w3.org/Graphics/SVG/1.1/DTD/svg11.dtd">
<svg width="422mm" height="292mm" viewBox="31 -167 422 292" xmlns="http://www.w3.org/2000/svg" version="1.1">
	<title>svgOutput</title>
	<desc>made with tinkercad</desc>
<path d="M 151.9980010986328 124 L 151.9980010986328 121.09700012207031 L 131.9969940185547 121.09700012207031 L 131.9969940185547 124 L 111.99700164794922 124 L 111.99700164794922 121.09700012207031 L 91.99600219726562 121.09700012207031 L 91.99600219726562 124 L 71.99600219726562 124 L 71.99600219726562 121.09700012207031 L 51.994998931884766 121.09700012207031 L 51.994998931884766 124 L 35.00299835205078 124 L 32 124 L 32 104.6709976196289 L 35.00299835205078 104.6709976196289 L 35.00299835205078 85.33699798583984 L 32 85.33699798583984 L 32 66.00299835205078 L 35.00299835205078 66.00299835205078 L 35.00299835205078 46.66999816894531 L 35.00299835205078 42.801998138427734 L 32 42.801998138427734 L 32 41.85820007324219 L 32 1.1102230246251565e-16 L 32 -83.85820007324219 L 32 -84.42707061767578 L 32 -84.802001953125 L 35.00299835205078 -84.802001953125 L 35.00299835205078 -85.62816619873047 L 35.00299835205078 -87.44380950927734 L 35.00299835205078 -88.66999816894531 L 35.00299835205078 -108.00299835205078 L 32 -108.00299835205078 L 32 -127.33699798583984 L 35.00299835205078 -127.33699798583984 L 35.00299835205078 -146.67100524902344 L 32 -146.67100524902344 L 32 -166 L 35.00299835205078 -166 L 51.994998931884766 -166 L 51.994998931884766 -163.09800720214844 L 71.99600219726562 -163.09800720214844 L 71.99600219726562 -166 L 91.99600219726562 -166 L 91.99600219726562 -163.09800720214844 L 111.99700164794922 -163.09800720214844 L 111.99700164794922 -166 L 131.9969940185547 -166 L 131.9969940185547 -163.09800720214844 L 151.9980010986328 -163.09800720214844 L 151.9980010986328 -166 L 171.9980010986328 -166 L 171.9980010986328 -163.09800720214844 L 191.99899291992188 -163.09800720214844 L 191.99899291992188 -166 L 211.99899291992188 -166 L 211.99899291992188 -163.09800720214844 L 232 -163.09800720214844 L 232 -166 L 252 -166 L 252 -163.09800720214844 L 272.0010070800781 -163.09800720214844 L 272.0010070800781 -166 L 292.0010070800781 -166 L 292.0010070800781 -163.09800720214844 L 312.00201416015625 -163.09800720214844 L 312.00201416015625 -166 L 332.00201416015625 -166 L 332.00201416015625 -163.09800720214844 L 352.00299072265625 -163.09800720214844 L 352.00299072265625 -166 L 372.00299072265625 -166 L 372.00299072265625 -163.09800720214844 L 392.0039978027344 -163.09800720214844 L 392.0039978027344 -166 L 412.0039978027344 -166 L 412.0039978027344 -163.09800720214844 L 432.0050048828125 -163.09800720214844 L 432.0050048828125 -166 L 449 -166 L 452 -166 L 452 -163.09800720214844 L 452 -146.67100524902344 L 448.99798583984375 -146.67100524902344 L 448.99798583984375 -127.33699798583984 L 452 -127.33699798583984 L 452 -108.00299835205078 L 448.99798583984375 -108.00299835205078 L 448.99798583984375 -88.66899871826172 L 452 -88.66899871826172 L 452 -69.33499908447266 L 448.99798583984375 -69.33499908447266 L 448.99798583984375 -50.00199890136719 L 452 -50.00199890136719 L 452 -30.667999267578125 L 448.99798583984375 -30.667999267578125 L 448.99798583984375 -11.333999633789062 L 452 -11.333999633789062 L 452 8 L 448.99798583984375 8 L 448.99798583984375 27.333999633789062 L 452 27.333999633789062 L 452 46.667999267578125 L 448.99798583984375 46.667999267578125 L 448.99798583984375 66.00199890136719 L 452 66.00199890136719 L 452 85.33599853515625 L 448.99798583984375 85.33599853515625 L 448.99798583984375 104.66999816894531 L 452 104.66999816894531 L 452 121.09700012207031 L 452 124 L 432.0050048828125 124 L 432.0050048828125 121.09700012207031 L 412.0039978027344 121.09700012207031 L 412.0039978027344 124 L 392.0039978027344 124 L 392.0039978027344 121.09700012207031 L 372.00299072265625 121.09700012207031 L 372.00299072265625 124 L 352.00299072265625 124 L 352.00299072265625 121.09700012207031 L 332.00201416015625 121.09700012207031 L 332.00201416015625 124 L 312.00201416015625 124 L 312.00201416015625 121.09700012207031 L 292.0010070800781 121.09700012207031 L 292.0010070800781 124 L 272.0010070800781 124 L 272.0010070800781 121.09700012207031 L 252 121.09700012207031 L 252 124 L 232 124 L 232 121.09700012207031 L 211.99899291992188 121.09700012207031 L 211.99899291992188 124 L 191.99899291992188 124 L 191.99899291992188 121.09700012207031 L 171.9980010986328 121.09700012207031 L 171.9980010986328 124 L 151.9980010986328 124 z" fill="none" stroke="rgb(255,0,0)" stroke-width="0.001mm" />
</svg>