<?xml version="1.0" standalone="no"?>
<!DOCTYPE svg PUBLIC "-//W3C//DTD SVG 1.1//EN"
  "http://www.w3.org/Graphics/SVG/1.1/DTD/svg11.dtd">
<svg width="252mm" height="292mm" viewBox="-354 -156 252 292" xmlns="http://www.w3.org/2000/svg" version="1.1">
	<title>svgOutput</title>
	<desc>made with tinkercad</desc>
<path d="M -110 -155 L -110 -152.0970001220703 L -106.00299835205078 -152.0970001220703 L -106.00299835205078 -135.66799926757812 L -103 -135.66799926757812 L -103 -116.33399963378906 L -106.00299835205078 -116.33399963378906 L -106.00299835205078 -97 L -103 -97 L -103 -77.66699981689453 L -106.00299835205078 -77.66699981689453 L -106.00299835205078 -58.33300018310547 L -103 -58.33300018310547 L -103 -39 L -106.00299835205078 -39 L -106.00299835205078 -19.666000366210938 L -103 -19.666000366210938 L -103 -0.3330000042915343 L -106.00299835205078 -0.3330000042915343 L -106.00299835205078 19.000999450683594 L -103 19.000999450683594 L -103 38.334999084472656 L -106.00299835205078 38.334999084472656 L -106.00299835205078 57.667999267578125 L -103 57.667999267578125 L -103 61.00199890136719 L -103 77.00199890136719 L -106.00299835205078 77.00199890136719 L -106.00299835205078 96.33499908447266 L -103 96.33499908447266 L -103 115.66899871826172 L -106.00299835205078 115.66899871826172 L -106.00299835205078 132.0970001220703 L -109.99500274658203 132.0970001220703 L -109.99500274658203 135 L -129.99600219726562 135 L -129.99600219726562 132.0970001220703 L -149.99600219726562 132.0970001220703 L -149.99600219726562 135 L -169.9969940185547 135 L -169.9969940185547 132.0970001220703 L -189.9980010986328 132.0970001220703 L -189.9980010986328 135 L -209.9980010986328 135 L -209.9980010986328 132.0970001220703 L -229.99899291992188 132.0970001220703 L -229.99899291992188 135 L -250 135 L -250 132.0970001220703 L -270 132.0970001220703 L -270 135 L -290.0010070800781 135 L -290.0010070800781 132.0970001220703 L -310.00201416015625 132.0970001220703 L -310.00201416015625 135 L -330.00201416015625 135 L -330.00201416015625 132.0970001220703 L -349.99798583984375 132.0970001220703 L -349.99798583984375 115.66899871826172 L -353 115.66899871826172 L -353 96.33499908447266 L -349.99798583984375 96.33499908447266 L -349.99798583984375 77.0009994506836 L -353 77.0009994506836 L -353 61.00199890136719 L -353 60.220436096191406 L -353 56.67759704589844 L -353 54.56418991088867 L -353 53.80099868774414 L -352.3905944824219 53.80099868774414 L -351.7405090332031 53.80099868774414 L -349.99798583984375 54.42427444458008 L -346.5740051269531 55.64899826049805 L -337.9779968261719 57.9739990234375 L -329.12200927734375 59.6510009765625 L -327.67999267578125 59.812747955322266 L -320.09100341796875 60.66400146484375 L -310.9729919433594 61.00199890136719 L -301.85400390625 60.66400146484375 L -292.8240051269531 59.6510009765625 L -283.9679870605469 57.9739990234375 L -275.37200927734375 55.64899826049805 L -267.1189880371094 52.696998596191406 L -262.1440124511719 50.442970275878906 L -259.2879943847656 49.14899826049805 L -251.95599365234375 45.0369987487793 L -245.1909942626953 40.402000427246094 L -239.05999755859375 35.2869987487793 L -233.6219940185547 29.743000030517578 L -228.92799377441406 23.822999954223633 L -225.02499389648438 17.58300018310547 L -221.94900512695312 11.083999633789062 L -219.7310028076172 4.388999938964844 L -218.86965942382812 1.1102230246251565e-16 L -218.39100646972656 -2.438999891281128 L -217.9429931640625 -9.333000183105469 L -218.39100646972656 -16.226999282836914 L -219.7310028076172 -23.05500030517578 L -221.94900512695312 -29.750999450683594 L -225.02499389648438 -36.25 L -228.92799377441406 -42.48899841308594 L -233.6219940185547 -48.40999984741211 L -239.05999755859375 -53.95399856567383 L -245.1909942626953 -59.06800079345703 L -251.95599365234375 -63.70399856567383 L -259.2879943847656 -67.81500244140625 L -262.1440124511719 -69.10933685302734 L -267.1189880371094 -71.36399841308594 L -275.37200927734375 -74.31500244140625 L -283.9679870605469 -76.64099884033203 L -292.8240051269531 -78.31800079345703 L -301.85400390625 -79.33000183105469 L -310.9729919433594 -79.66899871826172 L -320.09100341796875 -79.33000183105469 L -327.67999267578125 -78.4795913696289 L -329.12200927734375 -78.31800079345703 L -337.9779968261719 -76.64099884033203 L -346.5740051269531 -74.31500244140625 L -349.99798583984375 -73.09069061279297 L -349.99798583984375 -73.38849639892578 L -349.99798583984375 -73.8010025024414 L -352.97564697265625 -73.8010025024414 L -353 -73.8010025024414 L -353 -75.64226531982422 L -353 -79.66899871826172 L -353 -97.00199890136719 L -349.99798583984375 -97.00199890136719 L -349.99798583984375 -116.33499908447266 L -353 -116.33499908447266 L -353 -135.66900634765625 L -349.99798583984375 -135.66900634765625 L -349.99798583984375 -152.0970001220703 L -330.00201416015625 -152.0970001220703 L -330.00201416015625 -155 L -310.00201416015625 -155 L -310.00201416015625 -152.0970001220703 L -290.00201416015625 -152.0970001220703 L -290.00201416015625 -155 L -270.00201416015625 -155 L -270.00201416015625 -152.0970001220703 L -250.00100708007812 -152.0970001220703 L -250.00100708007812 -155 L -230.00100708007812 -155 L -230.00100708007812 -152.0970001220703 L -217.9429931640625 -152.0970001220703 L -210.00100708007812 -152.0970001220703 L -210.00100708007812 -155 L -190.00100708007812 -155 L -190.00100708007812 -152.0970001220703 L -170 -152.0970001220703 L -170 -155 L -150 -155 L -150 -152.0970001220703 L -130 -152.0970001220703 L -130 -155 L -110 -155 z" fill="none" stroke="rgb(255,0,0)" stroke-width="0.001mm" />
</svg>