<?xml version="1.0" standalone="no"?>
<!DOCTYPE svg PUBLIC "-//W3C//DTD SVG 1.1//EN"
  "http://www.w3.org/Graphics/SVG/1.1/DTD/svg11.dtd">
<svg width="422mm" height="252mm" viewBox="33 176 422 252" xmlns="http://www.w3.org/2000/svg" version="1.1">
	<title>svgOutput</title>
	<desc>made with tinkercad</desc>
<path d="M 394.00201416015625 177 L 394.00201416015625 180.0030059814453 L 414.00201416015625 180.0030059814453 L 414.00201416015625 177 L 434.00201416015625 177 L 434.00201416015625 180.0030059814453 L 450.99798583984375 180.0030059814453 L 450.99798583984375 199.9980010986328 L 454 199.9980010986328 L 454 219.9980010986328 L 450.99798583984375 219.9980010986328 L 450.99798583984375 239.9980010986328 L 454 239.9980010986328 L 454 259.99798583984375 L 450.99798583984375 259.99798583984375 L 450.99798583984375 279.9989929199219 L 454 279.9989929199219 L 454 299.9989929199219 L 450.99798583984375 299.9989929199219 L 450.99798583984375 319.9989929199219 L 454 319.9989929199219 L 454 339.9989929199219 L 450.99798583984375 339.9989929199219 L 450.99798583984375 360 L 454 360 L 454 380 L 450.99798583984375 380 L 450.99798583984375 400 L 454 400 L 454 420 L 450.99798583984375 420 L 450.99798583984375 423.99798583984375 L 434.00201416015625 423.99798583984375 L 434.00201416015625 427 L 414.00201416015625 427 L 414.00201416015625 423.99798583984375 L 394.00201416015625 423.99798583984375 L 394.00201416015625 427 L 374.00201416015625 427 L 374.00201416015625 423.99798583984375 L 354.0010070800781 423.99798583984375 L 354.0010070800781 427 L 334.0010070800781 427 L 334.0010070800781 423.99798583984375 L 314.0010070800781 423.99798583984375 L 314.0010070800781 427 L 294.0010070800781 427 L 294.0010070800781 423.99798583984375 L 274 423.99798583984375 L 274 427 L 254 427 L 254 423.99798583984375 L 234 423.99798583984375 L 234 427 L 214 427 L 214 423.99798583984375 L 193.99899291992188 423.99798583984375 L 193.99899291992188 427 L 173.99899291992188 427 L 173.99899291992188 423.99798583984375 L 153.99899291992188 423.99798583984375 L 153.99899291992188 427 L 133.99899291992188 427 L 133.99899291992188 423.99798583984375 L 113.99800109863281 423.99798583984375 L 113.99800109863281 427 L 93.99800109863281 427 L 93.99800109863281 423.99798583984375 L 73.99800109863281 423.99798583984375 L 73.99800109863281 427 L 53.99800109863281 427 L 53.99800109863281 423.99798583984375 L 37.00299835205078 423.99798583984375 L 34 423.99798583984375 L 34 420.00299072265625 L 37.00299835205078 420.00299072265625 L 37.00299835205078 400.00201416015625 L 34 400.00201416015625 L 34 380.00201416015625 L 37.00299835205078 380.00201416015625 L 37.00299835205078 360.00201416015625 L 34 360.00201416015625 L 34 340.00201416015625 L 37.00299835205078 340.00201416015625 L 37.00299835205078 320.0010070800781 L 34 320.0010070800781 L 34 300.0010070800781 L 37.00299835205078 300.0010070800781 L 37.00299835205078 280.0010070800781 L 34 280.0010070800781 L 34 260.0010070800781 L 37.00299835205078 260.0010070800781 L 37.00299835205078 240 L 34 240 L 34 220 L 37.00299835205078 220 L 37.00299835205078 200 L 34 200 L 34 180.0030059814453 L 37.00299835205078 180.0030059814453 L 53.99800109863281 180.0030059814453 L 53.99800109863281 177 L 73.99800109863281 177 L 73.99800109863281 180.0030059814453 L 93.99800109863281 180.0030059814453 L 93.99800109863281 177 L 113.99800109863281 177 L 113.99800109863281 180.0030059814453 L 133.99899291992188 180.0030059814453 L 133.99899291992188 177 L 153.99899291992188 177 L 153.99899291992188 180.0030059814453 L 173.99899291992188 180.0030059814453 L 173.99899291992188 177 L 193.99899291992188 177 L 193.99899291992188 180.0030059814453 L 214 180.0030059814453 L 214 177 L 234 177 L 234 180.0030059814453 L 254 180.0030059814453 L 254 177 L 274 177 L 274 180.0030059814453 L 294.0010070800781 180.0030059814453 L 294.0010070800781 177 L 314.0010070800781 177 L 314.0010070800781 180.0030059814453 L 334.0010070800781 180.0030059814453 L 334.0010070800781 177 L 354.0010070800781 177 L 354.0010070800781 180.0030059814453 L 374.00201416015625 180.0030059814453 L 374.00201416015625 177 L 394.00201416015625 177 z" fill="none" stroke="rgb(255,0,0)" stroke-width="0.001mm" />
</svg>