<?xml version="1.0" standalone="no"?>
<!DOCTYPE svg PUBLIC "-//W3C//DTD SVG 1.1//EN"
  "http://www.w3.org/Graphics/SVG/1.1/DTD/svg11.dtd">
<svg width="422mm" height="252mm" viewBox="7 -466 422 252" xmlns="http://www.w3.org/2000/svg" version="1.1">
	<title>svgOutput</title>
	<desc>made with tinkercad</desc>
<path d="M 348.00201416015625 -215 L 348.00201416015625 -218.0030059814453 L 328.0010070800781 -218.0030059814453 L 328.0010070800781 -215 L 308.0010070800781 -215 L 308.0010070800781 -218.0030059814453 L 288.0010070800781 -218.0030059814453 L 288.0010070800781 -215 L 268.0010070800781 -215 L 268.0010070800781 -218.0030059814453 L 248 -218.0030059814453 L 248 -215 L 228 -215 L 228 -218.0030059814453 L 208 -218.0030059814453 L 208 -215 L 188 -215 L 188 -218.0030059814453 L 167.99899291992188 -218.0030059814453 L 167.99899291992188 -215 L 147.99899291992188 -215 L 147.99899291992188 -218.0030059814453 L 127.9990005493164 -218.0030059814453 L 127.9990005493164 -215 L 107.9990005493164 -215 L 107.9990005493164 -218.0030059814453 L 87.99800109863281 -218.0030059814453 L 87.99800109863281 -215 L 67.99800109863281 -215 L 67.99800109863281 -218.0030059814453 L 47.99800109863281 -218.0030059814453 L 47.99800109863281 -215 L 27.99799919128418 -215 L 27.99799919128418 -218.0030059814453 L 11.003000259399414 -218.0030059814453 L 8 -218.0030059814453 L 8 -221.9969940185547 L 11.003000259399414 -221.9969940185547 L 11.003000259399414 -241.9980010986328 L 8 -241.9980010986328 L 8 -261.9989929199219 L 11.003000259399414 -261.9989929199219 L 11.003000259399414 -281.9989929199219 L 8 -281.9989929199219 L 8 -302 L 11.003000259399414 -302 L 11.003000259399414 -322.0010070800781 L 8 -322.0010070800781 L 8 -341.99798583984375 L 8 -342.0010070800781 L 11.003000259399414 -342.0010070800781 L 11.003000259399414 -362.00201416015625 L 8 -362.00201416015625 L 8 -382.00201416015625 L 11.003000259399414 -382.00201416015625 L 11.003000259399414 -402.00299072265625 L 8 -402.00299072265625 L 8 -422.0039978027344 L 11.003000259399414 -422.0039978027344 L 11.003000259399414 -442.0039978027344 L 8 -442.0039978027344 L 8 -461.99798583984375 L 11.003000259399414 -461.99798583984375 L 27.99799919128418 -461.99798583984375 L 27.99799919128418 -465 L 47.99800109863281 -465 L 47.99800109863281 -461.99798583984375 L 67.99800109863281 -461.99798583984375 L 67.99800109863281 -465 L 87.99800109863281 -465 L 87.99800109863281 -461.99798583984375 L 107.9990005493164 -461.99798583984375 L 107.9990005493164 -465 L 127.9990005493164 -465 L 127.9990005493164 -461.99798583984375 L 147.99899291992188 -461.99798583984375 L 147.99899291992188 -465 L 167.99899291992188 -465 L 167.99899291992188 -461.99798583984375 L 188 -461.99798583984375 L 188 -465 L 208 -465 L 208 -461.99798583984375 L 228 -461.99798583984375 L 228 -465 L 248 -465 L 248 -461.99798583984375 L 268.0010070800781 -461.99798583984375 L 268.0010070800781 -465 L 288.0010070800781 -465 L 288.0010070800781 -461.99798583984375 L 308.0010070800781 -461.99798583984375 L 308.0010070800781 -465 L 328.0010070800781 -465 L 328.0010070800781 -461.99798583984375 L 348.00201416015625 -461.99798583984375 L 348.00201416015625 -465 L 368.00201416015625 -465 L 368.00201416015625 -461.99798583984375 L 388.00201416015625 -461.99798583984375 L 388.00201416015625 -465 L 408.00201416015625 -465 L 408.00201416015625 -461.99798583984375 L 424.99798583984375 -461.99798583984375 L 424.99798583984375 -442.00201416015625 L 428 -442.00201416015625 L 428 -422.00201416015625 L 424.99798583984375 -422.00201416015625 L 424.99798583984375 -402.00201416015625 L 428 -402.00201416015625 L 428 -382.00201416015625 L 424.99798583984375 -382.00201416015625 L 424.99798583984375 -362.0010070800781 L 428 -362.0010070800781 L 428 -342.0010070800781 L 424.99798583984375 -342.0010070800781 L 424.99798583984375 -322.0010070800781 L 428 -322.0010070800781 L 428 -302.0010070800781 L 424.99798583984375 -302.0010070800781 L 424.99798583984375 -282 L 428 -282 L 428 -262 L 424.99798583984375 -262 L 424.99798583984375 -242 L 428 -242 L 428 -222 L 424.99798583984375 -222 L 424.99798583984375 -218.0030059814453 L 408.00201416015625 -218.0030059814453 L 408.00201416015625 -215 L 388.00201416015625 -215 L 388.00201416015625 -218.0030059814453 L 368.00201416015625 -218.0030059814453 L 368.00201416015625 -215 L 348.00201416015625 -215 z" fill="none" stroke="rgb(255,0,0)" stroke-width="0.001mm" />
</svg>