<?xml version="1.0" standalone="no"?>
<!DOCTYPE svg PUBLIC "-//W3C//DTD SVG 1.1//EN"
  "http://www.w3.org/Graphics/SVG/1.1/DTD/svg11.dtd">
<svg width="382.0039978027344mm" height="5mm" viewBox="-189.0019989013672 -127 382.0039978027344 5" xmlns="http://www.w3.org/2000/svg" version="1.1">
	<title>svgOutput</title>
	<desc>made with tinkercad</desc>
<path d="M 192.0019989013672 -126 L 192.0019989013672 -123 L 172.0019989013672 -123 L 172.0019989013672 -126 L 192.0019989013672 -126 M 152.0019989013672 -126 L 152.0019989013672 -123 L 132.0019989013672 -123 L 132.0019989013672 -126 L 152.0019989013672 -126 M 112.0009994506836 -126 L 112.0009994506836 -123 L 92.0009994506836 -123 L 92.0009994506836 -126 L 112.0009994506836 -126 M 72.0009994506836 -126 L 72.0009994506836 -123 L 52.000999450683594 -123 L 52.000999450683594 -126 L 72.0009994506836 -126 M 32 -126 L 32 -123 L 12 -123 L 12 -126 L 32 -126 M -188.0019989013672 -123 L -188.0019989013672 -126 L -168.0019989013672 -126 L -168.0019989013672 -123 L -188.0019989013672 -123 M -148.0019989013672 -123 L -148.0019989013672 -126 L -128.0019989013672 -126 L -128.0019989013672 -123 L -148.0019989013672 -123 M -108.0009994506836 -123 L -108.0009994506836 -126 L -88.0009994506836 -126 L -88.0009994506836 -123 L -108.0009994506836 -123 M -8 -126 L -8 -123 L -28 -123 L -28 -126 L -8 -126 M -48.000999450683594 -126 L -48.000999450683594 -123 L -68.0009994506836 -123 L -68.0009994506836 -126 L -48.000999450683594 -126 z" fill="none" stroke="rgb(255,0,0)" stroke-width="0.001mm" />
</svg>