<?xml version="1.0" standalone="no"?>
<!DOCTYPE svg PUBLIC "-//W3C//DTD SVG 1.1//EN"
  "http://www.w3.org/Graphics/SVG/1.1/DTD/svg11.dtd">
<svg width="252mm" height="292mm" viewBox="-197 175 252 292" xmlns="http://www.w3.org/2000/svg" version="1.1">
	<title>svgOutput</title>
	<desc>made with tinkercad</desc>
<path d="M 54 330.6669921875 L 50.99800109863281 330.6669921875 L 50.99800109863281 350.0010070800781 L 54 350.0010070800781 L 54 369.3349914550781 L 50.99800109863281 369.3349914550781 L 50.99800109863281 388.6679992675781 L 54 388.6679992675781 L 54 392.00299072265625 L 54 408.00201416015625 L 50.99800109863281 408.00201416015625 L 50.99800109863281 427.3349914550781 L 54 427.3349914550781 L 54 446.66900634765625 L 50.99800109863281 446.66900634765625 L 50.99800109863281 463.09698486328125 L 47.005001068115234 463.09698486328125 L 47.005001068115234 466 L 27.003999710083008 466 L 27.003999710083008 463.09698486328125 L 7.004000186920166 463.09698486328125 L 7.004000186920166 466 L -12.996999740600586 466 L -12.996999740600586 463.09698486328125 L -32.99800109863281 463.09698486328125 L -32.99800109863281 466 L -52.99800109863281 466 L -52.99800109863281 463.09698486328125 L -72.9990005493164 463.09698486328125 L -72.9990005493164 466 L -93 466 L -93 463.09698486328125 L -113 463.09698486328125 L -113 466 L -133.00100708007812 466 L -133.00100708007812 463.09698486328125 L -153.0019989013672 463.09698486328125 L -153.0019989013672 466 L -173.0019989013672 466 L -173.0019989013672 463.09698486328125 L -192.9980010986328 463.09698486328125 L -192.9980010986328 446.66900634765625 L -196 446.66900634765625 L -196 427.3349914550781 L -192.9980010986328 427.3349914550781 L -192.9980010986328 408.00201416015625 L -196 408.00201416015625 L -196 392.00299072265625 L -196 384.8009948730469 L -194.74050903320312 384.8009948730469 L -192.9980010986328 385.4242858886719 L -189.57400512695312 386.64898681640625 L -180.97799682617188 388.9739990234375 L -172.1219940185547 390.6510009765625 L -163.09100341796875 391.66400146484375 L -153.97300720214844 392.00299072265625 L -144.85400390625 391.66400146484375 L -135.82400512695312 390.6510009765625 L -131.07200622558594 389.75115966796875 L -126.96800231933594 388.9739990234375 L -118.37200164794922 386.64898681640625 L -110.11900329589844 383.6969909667969 L -102.28800201416016 380.14898681640625 L -94.95600128173828 376.0369873046875 L -88.19100189208984 371.4020080566406 L -82.05999755859375 366.2869873046875 L -76.62200164794922 360.7430114746094 L -71.9280014038086 354.822998046875 L -68.0250015258789 348.5830078125 L -64.9489974975586 342.0840148925781 L -62.73099899291992 335.3890075683594 L -61.39099884033203 328.5610046386719 L -61.33374786376953 327.67999267578125 L -60.94300079345703 321.6669921875 L -61.39099884033203 314.77301025390625 L -62.73099899291992 307.94500732421875 L -64.9489974975586 301.2489929199219 L -68.0250015258789 294.75 L -71.9280014038086 288.510986328125 L -76.62200164794922 282.5899963378906 L -82.05999755859375 277.0459899902344 L -88.19100189208984 271.9320068359375 L -94.95600128173828 267.2959899902344 L -102.28800201416016 263.18499755859375 L -104.58500671386719 262.1440124511719 L -110.11900329589844 259.635986328125 L -118.37200164794922 256.68499755859375 L -126.96800231933594 254.35899353027344 L -131.07200622558594 253.58184814453125 L -135.82400512695312 252.6820068359375 L -144.85400390625 251.6699981689453 L -153.97300720214844 251.33099365234375 L -163.09100341796875 251.6699981689453 L -172.1219940185547 252.6820068359375 L -180.97799682617188 254.35899353027344 L -189.57400512695312 256.68499755859375 L -192.9980010986328 257.9093017578125 L -192.9980010986328 257.61151123046875 L -192.9980010986328 257.1990051269531 L -195.9756317138672 257.1990051269531 L -196 257.1990051269531 L -196 255.35772705078125 L -196 252.89352416992188 L -196 251.33099365234375 L -196 233.9980010986328 L -192.9980010986328 233.9980010986328 L -192.9980010986328 214.6649932861328 L -196 214.6649932861328 L -196 195.33099365234375 L -192.9980010986328 195.33099365234375 L -192.9980010986328 178.9029998779297 L -173.0019989013672 178.9029998779297 L -173.0019989013672 176 L -153.0019989013672 176 L -153.0019989013672 178.9029998779297 L -133.0019989013672 178.9029998779297 L -133.0019989013672 176 L -113.00199890136719 176 L -113.00199890136719 178.9029998779297 L -93.0009994506836 178.9029998779297 L -93.0009994506836 176 L -73.0009994506836 176 L -73.0009994506836 178.9029998779297 L -60.94300079345703 178.9029998779297 L -53.000999450683594 178.9029998779297 L -53.000999450683594 176 L -33.000999450683594 176 L -33.000999450683594 178.9029998779297 L -13 178.9029998779297 L -13 176 L 7 176 L 7 178.9029998779297 L 27 178.9029998779297 L 27 176 L 47 176 L 47 178.9029998779297 L 50.99800109863281 178.9029998779297 L 50.99800109863281 195.33200073242188 L 54 195.33200073242188 L 54 214.66600036621094 L 50.99800109863281 214.66600036621094 L 50.99800109863281 234 L 54 234 L 54 253.33299255371094 L 50.99800109863281 253.33299255371094 L 50.99800109863281 272.6669921875 L 54 272.6669921875 L 54 292 L 50.99800109863281 292 L 50.99800109863281 311.3340148925781 L 54 311.3340148925781 L 54 330.6669921875 z" fill="none" stroke="rgb(255,0,0)" stroke-width="0.001mm" />
</svg>