<?xml version="1.0" standalone="no"?>
<!DOCTYPE svg PUBLIC "-//W3C//DTD SVG 1.1//EN"
  "http://www.w3.org/Graphics/SVG/1.1/DTD/svg11.dtd">
<svg width="252mm" height="292mm" viewBox="-363 178 252 292" xmlns="http://www.w3.org/2000/svg" version="1.1">
	<title>svgOutput</title>
	<desc>made with tinkercad</desc>
<path d="M -112 217.6649932861328 L -115.00299835205078 217.6649932861328 L -115.00299835205078 236.9980010986328 L -112 236.9980010986328 L -112 256.3320007324219 L -115.00299835205078 256.3320007324219 L -115.00299835205078 275.6650085449219 L -112 275.6650085449219 L -112 294.9989929199219 L -115.00299835205078 294.9989929199219 L -115.00299835205078 314.3330078125 L -112 314.3330078125 L -112 333.6659851074219 L -115.00299835205078 333.6659851074219 L -115.00299835205078 353 L -112 353 L -112 372.3330078125 L -115.00299835205078 372.3330078125 L -115.00299835205078 391.6669921875 L -112 391.6669921875 L -112 411 L -115.00299835205078 411 L -115.00299835205078 430.3340148925781 L -112 430.3340148925781 L -112 449.6669921875 L -115.00299835205078 449.6669921875 L -115.00299835205078 466.0979919433594 L -115.00299835205078 469 L -118.99700164794922 469 L -118.99700164794922 466.0979919433594 L -138.9980010986328 466.0979919433594 L -138.9980010986328 469 L -158.99899291992188 469 L -158.99899291992188 466.0979919433594 L -178.99899291992188 466.0979919433594 L -178.99899291992188 469 L -199 469 L -199 466.0979919433594 L -219 466.0979919433594 L -219 469 L -239.00100708007812 469 L -239.00100708007812 466.0979919433594 L -259.00201416015625 466.0979919433594 L -259.00201416015625 469 L -279.00201416015625 469 L -279.00201416015625 466.0979919433594 L -299.00299072265625 466.0979919433594 L -299.00299072265625 469 L -319.0039978027344 469 L -319.0039978027344 466.0979919433594 L -339.0039978027344 466.0979919433594 L -339.0039978027344 469 L -358.99798583984375 469 L -358.99798583984375 466.0979919433594 L -358.99798583984375 449.6669921875 L -362 449.6669921875 L -362 430.3340148925781 L -358.99798583984375 430.3340148925781 L -358.99798583984375 411 L -362 411 L -362 391.6669921875 L -358.99798583984375 391.6669921875 L -358.99798583984375 372.3330078125 L -362 372.3330078125 L -362 353 L -358.99798583984375 353 L -358.99798583984375 333.6659851074219 L -362 333.6659851074219 L -362 314.3330078125 L -358.99798583984375 314.3330078125 L -358.99798583984375 294.9989929199219 L -362 294.9989929199219 L -362 275.6650085449219 L -358.99798583984375 275.6650085449219 L -358.99798583984375 256.3320007324219 L -362 256.3320007324219 L -362 236.9980010986328 L -358.99798583984375 236.9980010986328 L -358.99798583984375 217.6649932861328 L -362 217.6649932861328 L -362 198.33099365234375 L -358.99798583984375 198.33099365234375 L -358.99798583984375 181.9029998779297 L -358.99798583984375 179 L -339.0039978027344 179 L -339.0039978027344 181.9029998779297 L -319.0039978027344 181.9029998779297 L -319.0039978027344 179 L -299.00299072265625 179 L -299.00299072265625 181.9029998779297 L -279.00201416015625 181.9029998779297 L -279.00201416015625 179 L -259.00201416015625 179 L -259.00201416015625 181.9029998779297 L -239.00100708007812 181.9029998779297 L -239.00100708007812 179 L -219 179 L -219 181.9029998779297 L -199 181.9029998779297 L -199 179 L -178.99899291992188 179 L -178.99899291992188 181.9029998779297 L -158.99899291992188 181.9029998779297 L -158.99899291992188 179 L -138.9980010986328 179 L -138.9980010986328 181.9029998779297 L -118.99700164794922 181.9029998779297 L -118.99700164794922 179 L -115.00299835205078 179 L -115.00299835205078 181.9029998779297 L -115.00299835205078 198.33099365234375 L -112 198.33099365234375 L -112 217.6649932861328 z" fill="none" stroke="rgb(255,0,0)" stroke-width="0.001mm" />
</svg>