<?xml version="1.0" standalone="no"?>
<!DOCTYPE svg PUBLIC "-//W3C//DTD SVG 1.1//EN"
  "http://www.w3.org/Graphics/SVG/1.1/DTD/svg11.dtd">
<svg width="422mm" height="292mm" viewBox="-430 -298 422 292" xmlns="http://www.w3.org/2000/svg" version="1.1">
	<title>svgOutput</title>
	<desc>made with tinkercad</desc>
<path d="M -429 -103.66500091552734 L -425.99798583984375 -103.66500091552734 L -425.99798583984375 -122.99800109863281 L -429 -122.99800109863281 L -429 -142.33200073242188 L -425.99798583984375 -142.33200073242188 L -425.99798583984375 -161.66600036621094 L -429 -161.66600036621094 L -429 -181 L -425.99798583984375 -181 L -425.99798583984375 -200.33399963378906 L -429 -200.33399963378906 L -429 -219.66799926757812 L -425.99798583984375 -219.66799926757812 L -425.99798583984375 -219.6699981689453 L -425.99798583984375 -239.0019989013672 L -429 -239.0019989013672 L -429 -258.33599853515625 L -425.99798583984375 -258.33599853515625 L -425.99798583984375 -277.6700134277344 L -429 -277.6700134277344 L -429 -294.1000061035156 L -429 -297 L -425.99798583984375 -297 L -409.0050048828125 -297 L -409.0050048828125 -294.0979919433594 L -389.0039978027344 -294.0979919433594 L -389.0039978027344 -297 L -369.0039978027344 -297 L -369.0039978027344 -294.0979919433594 L -349.00299072265625 -294.0979919433594 L -349.00299072265625 -297 L -329.00299072265625 -297 L -329.00299072265625 -294.0979919433594 L -309.00201416015625 -294.0979919433594 L -309.00201416015625 -297 L -289.00201416015625 -297 L -289.00201416015625 -294.0979919433594 L -269.0010070800781 -294.0979919433594 L -269.0010070800781 -297 L -249.00100708007812 -297 L -249.00100708007812 -294.0979919433594 L -229 -294.0979919433594 L -229 -297 L -209 -297 L -209 -294.0979919433594 L -188.99899291992188 -294.0979919433594 L -188.99899291992188 -297 L -168.99899291992188 -297 L -168.99899291992188 -294.0979919433594 L -148.9980010986328 -294.0979919433594 L -148.9980010986328 -297 L -128.9980010986328 -297 L -128.9980010986328 -294.0979919433594 L -108.99700164794922 -294.0979919433594 L -108.99700164794922 -297 L -88.99700164794922 -297 L -88.99700164794922 -294.0979919433594 L -68.99600219726562 -294.0979919433594 L -68.99600219726562 -297 L -48.99599838256836 -297 L -48.99599838256836 -294.0979919433594 L -28.9950008392334 -294.0979919433594 L -28.9950008392334 -297 L -9 -297 L -9 -294.0979919433594 L -9 -9.902999877929688 L -9 -7 L -12 -7 L -28.9950008392334 -7 L -28.9950008392334 -9.902999877929688 L -48.99599838256836 -9.902999877929688 L -48.99599838256836 -7 L -68.99600219726562 -7 L -68.99600219726562 -9.902999877929688 L -88.99700164794922 -9.902999877929688 L -88.99700164794922 -7 L -108.99700164794922 -7 L -108.99700164794922 -9.902999877929688 L -128.9980010986328 -9.902999877929688 L -128.9980010986328 -7 L -148.9980010986328 -7 L -148.9980010986328 -9.902999877929688 L -168.99899291992188 -9.902999877929688 L -168.99899291992188 -7 L -188.99899291992188 -7 L -188.99899291992188 -9.902999877929688 L -209 -9.902999877929688 L -209 -7 L -229 -7 L -229 -9.902999877929688 L -249.00100708007812 -9.902999877929688 L -249.00100708007812 -7 L -269.0010070800781 -7 L -269.0010070800781 -9.902999877929688 L -289.00201416015625 -9.902999877929688 L -289.00201416015625 -7 L -309.00201416015625 -7 L -309.00201416015625 -9.902999877929688 L -329.00299072265625 -9.902999877929688 L -329.00299072265625 -7 L -349.00299072265625 -7 L -349.00299072265625 -9.902999877929688 L -369.0039978027344 -9.902999877929688 L -369.0039978027344 -7 L -389.0039978027344 -7 L -389.0039978027344 -9.902999877929688 L -409.0050048828125 -9.902999877929688 L -409.0050048828125 -7 L -426 -7 L -429 -7 L -429 -9.902999877929688 L -429 -26.32900047302246 L -425.99798583984375 -26.32900047302246 L -425.99798583984375 -45.66299819946289 L -429 -45.66299819946289 L -429 -64.99700164794922 L -425.99798583984375 -64.99700164794922 L -425.99798583984375 -84.33000183105469 L -425.99798583984375 -84.33100128173828 L -429 -84.33100128173828 L -429 -103.66500091552734 M -15.003000259399414 -103.66600036621094 L -11.998000144958496 -103.66600036621094 L -11.998000144958496 -123 L -15.003000259399414 -123 L -15.003000259399414 -103.66600036621094 M -11.998000144958496 -84.33200073242188 L -15.003000259399414 -84.33200073242188 L -15.003000259399414 -64.99800109863281 L -11.998000144958496 -64.99800109863281 L -11.998000144958496 -84.33200073242188 M -11.998000144958496 -239.0030059814453 L -15.003000259399414 -239.0030059814453 L -15.003000259399414 -219.66900634765625 L -11.998000144958496 -219.66900634765625 L -11.998000144958496 -239.0030059814453 M -11.998000144958496 -277.6709899902344 L -15.003000259399414 -277.6709899902344 L -15.003000259399414 -258.3370056152344 L -11.998000144958496 -258.3370056152344 L -11.998000144958496 -277.6709899902344 M -11.998000144958496 -200.33599853515625 L -15.003000259399414 -200.33599853515625 L -15.003000259399414 -181.0019989013672 L -11.998000144958496 -181.0019989013672 L -11.998000144958496 -200.33599853515625 M -15.003000259399414 -142.33399963378906 L -11.998000144958496 -142.33399963378906 L -11.998000144958496 -161.66799926757812 L -15.003000259399414 -161.66799926757812 L -15.003000259399414 -142.33399963378906 M -11.998000144958496 -26.329999923706055 L -11.998000144958496 -45.66400146484375 L -15.003000259399414 -45.66400146484375 L -15.003000259399414 -26.329999923706055 L -11.998000144958496 -26.329999923706055 z" fill="none" stroke="rgb(255,0,0)" stroke-width="0.001mm" />
</svg>